{"layers": [{"lock": false, "id": "L0", "label": "", "number": 0, "y": 0}, {"lock": false, "id": "L1", "label": "", "number": 1, "y": 0}, {"lock": false, "id": "L2", "label": "", "number": 2, "y": 0}, {"lock": false, "id": "L3", "label": "", "number": 3, "y": 0}, {"lock": false, "id": "L4", "label": "", "number": 4, "y": 0}, {"lock": false, "id": "BFONS6TQ0Y", "label": "", "number": 5, "y": 0}], "duration": 300, "profile": "HDV 720 24p", "channels": 2, "markers": [], "playhead_position": 0, "width": 1280, "tick_pixels": 100, "clips": [{"wave_color": {"alpha": {"Points": [{"handle_type": 0, "co": {"X": 1.0, "Y": 255.0}, "handle_right": {"X": 0.5, "Y": 0.0}, "interpolation": 0, "handle_left": {"X": 0.5, "Y": 1.0}}]}, "red": {"Points": [{"handle_type": 0, "co": {"X": 1.0, "Y": 0.0}, "handle_right": {"X": 0.5, "Y": 0.0}, "interpolation": 0, "handle_left": {"X": 0.5, "Y": 1.0}}]}, "green": {"Points": [{"handle_type": 0, "co": {"X": 1.0, "Y": 123.0}, "handle_right": {"X": 0.5, "Y": 0.0}, "interpolation": 0, "handle_left": {"X": 0.5, "Y": 1.0}}]}, "blue": {"Points": [{"handle_type": 0, "co": {"X": 1.0, "Y": 255.0}, "handle_right": {"X": 0.5, "Y": 0.0}, "interpolation": 0, "handle_left": {"X": 0.5, "Y": 1.0}}]}}, "position": 0, "perspective_c3_y": {"Points": [{"co": {"X": 1.0, "Y": -1.0}, "interpolation": 2}]}, "end": 33.03, "anchor": 0, "perspective_c2_y": {"Points": [{"co": {"X": 1.0, "Y": -1.0}, "interpolation": 2}]}, "perspective_c3_x": {"Points": [{"co": {"X": 1.0, "Y": -1.0}, "interpolation": 2}]}, "location_y": {"Points": [{"co": {"X": 1.0, "Y": 0.0}, "interpolation": 2}]}, "image": "C:\\Program Files\\OpenShot Video Editor\\images\\AudioThumbnail.png", "title": "kinhumix-base-de-funk-violao-prod-53c3cb.mp3", "id": "Z7BPESA2AX", "shear_x": {"Points": [{"co": {"X": 1.0, "Y": 0.0}, "interpolation": 2}]}, "rotation": {"Points": [{"co": {"X": 1.0, "Y": 0.0}, "interpolation": 2}]}, "display": 0, "crop_width": {"Points": [{"co": {"X": 1.0, "Y": -1.0}, "interpolation": 2}]}, "perspective_c4_y": {"Points": [{"co": {"X": 1.0, "Y": -1.0}, "interpolation": 2}]}, "volume": {"Points": [{"co": {"X": 1.0, "Y": 1.0}, "interpolation": 2}]}, "reader": {"has_audio": true, "display_ratio": {"den": 1, "num": 1}, "channels": 2, "width": 720, "video_stream_index": -1, "has_video": false, "audio_bit_rate": 160000, "duration": 209.8677520751953, "audio_timebase": {"den": 14112000, "num": 1}, "pixel_format": -1, "channel_layout": 3, "audio_stream_index": 0, "interlaced_frame": false, "file_size": "4197425", "vcodec": "", "type": "FFmpegReader", "acodec": "mp3", "fps": {"den": 1, "num": 24}, "top_field_first": true, "video_bit_rate": 0, "height": 480, "path": "..\\..\\_9 Resources\\Audio\\Kinhu Mix\\kinhumix-base-de-funk-violao-prod-53c3cb.mp3", "video_length": "5036", "has_single_image": false, "pixel_ratio": {"den": 1, "num": 1}, "sample_rate": 44100, "video_timebase": {"den": 24, "num": 1}}, "perspective_c4_x": {"Points": [{"co": {"X": 1.0, "Y": -1.0}, "interpolation": 2}]}, "crop_y": {"Points": [{"co": {"X": 1.0, "Y": 0.0}, "interpolation": 2}]}, "has_video": {"Points": [{"co": {"X": 1.0, "Y": -1.0}, "interpolation": 2}]}, "channel_mapping": {"Points": [{"co": {"X": 1.0, "Y": -1.0}, "interpolation": 2}]}, "layer": 0, "time": {"Points": [{"co": {"X": 1.0, "Y": 0.0}, "interpolation": 2}]}, "scale_x": {"Points": [{"co": {"X": 1.0, "Y": 1.0}, "interpolation": 2}]}, "has_audio": {"Points": [{"co": {"X": 1.0, "Y": -1.0}, "interpolation": 2}]}, "waveform": false, "location_x": {"Points": [{"co": {"X": 1.0, "Y": 0.0}, "interpolation": 2}]}, "duration": 209.8677520751953, "perspective_c1_y": {"Points": [{"co": {"X": 1.0, "Y": -1.0}, "interpolation": 2}]}, "start": 0, "shear_y": {"Points": [{"co": {"X": 1.0, "Y": 0.0}, "interpolation": 2}]}, "perspective_c1_x": {"Points": [{"co": {"X": 1.0, "Y": -1.0}, "interpolation": 2}]}, "crop_x": {"Points": [{"co": {"X": 1.0, "Y": 0.0}, "interpolation": 2}]}, "scale_y": {"Points": [{"co": {"X": 1.0, "Y": 1.0}, "interpolation": 2}]}, "effects": [], "channel_filter": {"Points": [{"co": {"X": 1.0, "Y": -1.0}, "interpolation": 2}]}, "gravity": 4, "scale": 1, "file_id": "FT51V3RUBZ", "crop_height": {"Points": [{"co": {"X": 1.0, "Y": -1.0}, "interpolation": 2}]}, "alpha": {"Points": [{"co": {"X": 1.0, "Y": 1.0}, "interpolation": 2}]}, "perspective_c2_x": {"Points": [{"co": {"X": 1.0, "Y": -1.0}, "interpolation": 2}]}}, {"wave_color": {"alpha": {"Points": [{"handle_right": {"X": 0.5, "Y": 0.0}, "co": {"X": 1.0, "Y": 255.0}, "handle_type": 0, "handle_left": {"X": 0.5, "Y": 1.0}, "interpolation": 0}]}, "red": {"Points": [{"handle_right": {"X": 0.5, "Y": 0.0}, "co": {"X": 1.0, "Y": 0.0}, "handle_type": 0, "handle_left": {"X": 0.5, "Y": 1.0}, "interpolation": 0}]}, "green": {"Points": [{"handle_right": {"X": 0.5, "Y": 0.0}, "co": {"X": 1.0, "Y": 123.0}, "handle_type": 0, "handle_left": {"X": 0.5, "Y": 1.0}, "interpolation": 0}]}, "blue": {"Points": [{"handle_right": {"X": 0.5, "Y": 0.0}, "co": {"X": 1.0, "Y": 255.0}, "handle_type": 0, "handle_left": {"X": 0.5, "Y": 1.0}, "interpolation": 0}]}}, "position": 0, "perspective_c3_y": {"Points": [{"co": {"X": 1.0, "Y": -1.0}, "interpolation": 2}]}, "end": 4, "anchor": 0, "perspective_c2_y": {"Points": [{"co": {"X": 1.0, "Y": -1.0}, "interpolation": 2}]}, "perspective_c3_x": {"Points": [{"co": {"X": 1.0, "Y": -1.0}, "interpolation": 2}]}, "location_y": {"Points": [{"co": {"X": 1.0, "Y": 0.0}, "interpolation": 2}]}, "image": "C:\\Users\\guilh\\.openshot_qt\\thumbnail\\3HIUVQQUBI.png", "title": "Tri-A1.mp4", "id": "MMYUGUNSJ8", "shear_x": {"Points": [{"co": {"X": 1.0, "Y": 0.0}, "interpolation": 2}]}, "rotation": {"Points": [{"co": {"X": 1.0, "Y": 0.0}, "interpolation": 2}]}, "display": 0, "crop_width": {"Points": [{"co": {"X": 1.0, "Y": -1.0}, "interpolation": 2}]}, "perspective_c4_y": {"Points": [{"co": {"X": 1.0, "Y": -1.0}, "interpolation": 2}]}, "volume": {"Points": [{"co": {"X": 1.0, "Y": 1.0}, "interpolation": 2}]}, "reader": {"has_audio": false, "display_ratio": {"den": 9, "num": 16}, "channels": 0, "width": 1920, "video_stream_index": 0, "has_video": true, "audio_bit_rate": 0, "duration": 4.0, "audio_timebase": {"den": 1, "num": 1}, "pixel_format": 0, "channel_layout": 4, "audio_stream_index": -1, "interlaced_frame": false, "file_size": "468489", "vcodec": "h264", "type": "FFmpegReader", "acodec": "", "fps": {"den": 1, "num": 25}, "top_field_first": true, "video_bit_rate": 936978, "height": 1080, "path": "D:/Dropbox/_2 Projetos Pessoais/Formas/Tri-A1.mp4", "video_length": "100", "has_single_image": false, "pixel_ratio": {"den": 1, "num": 1}, "sample_rate": 0, "video_timebase": {"den": 25, "num": 1}}, "perspective_c4_x": {"Points": [{"co": {"X": 1.0, "Y": -1.0}, "interpolation": 2}]}, "crop_y": {"Points": [{"co": {"X": 1.0, "Y": 0.0}, "interpolation": 2}]}, "has_video": {"Points": [{"co": {"X": 1.0, "Y": -1.0}, "interpolation": 2}]}, "channel_mapping": {"Points": [{"co": {"X": 1.0, "Y": -1.0}, "interpolation": 2}]}, "layer": 1, "time": {"Points": [{"co": {"X": 1.0, "Y": 0.0}, "interpolation": 2}]}, "scale_x": {"Points": [{"co": {"X": 1.0, "Y": 1.0}, "interpolation": 2}]}, "has_audio": {"Points": [{"co": {"X": 1.0, "Y": -1.0}, "interpolation": 2}]}, "waveform": false, "location_x": {"Points": [{"co": {"X": 1.0, "Y": 0.0}, "interpolation": 2}]}, "duration": 4.0, "perspective_c1_y": {"Points": [{"co": {"X": 1.0, "Y": -1.0}, "interpolation": 2}]}, "start": 0, "shear_y": {"Points": [{"co": {"X": 1.0, "Y": 0.0}, "interpolation": 2}]}, "perspective_c1_x": {"Points": [{"co": {"X": 1.0, "Y": -1.0}, "interpolation": 2}]}, "crop_x": {"Points": [{"co": {"X": 1.0, "Y": 0.0}, "interpolation": 2}]}, "scale_y": {"Points": [{"co": {"X": 1.0, "Y": 1.0}, "interpolation": 2}]}, "effects": [], "channel_filter": {"Points": [{"co": {"X": 1.0, "Y": -1.0}, "interpolation": 2}]}, "gravity": 4, "scale": 1, "file_id": "3HIUVQQUBI", "crop_height": {"Points": [{"co": {"X": 1.0, "Y": -1.0}, "interpolation": 2}]}, "alpha": {"Points": [{"co": {"X": 1.0, "Y": 1.0}, "interpolation": 2}]}, "perspective_c2_x": {"Points": [{"co": {"X": 1.0, "Y": -1.0}, "interpolation": 2}]}}, {"wave_color": {"alpha": {"Points": [{"handle_right": {"X": 0.5, "Y": 0.0}, "co": {"X": 1.0, "Y": 255.0}, "handle_type": 0, "handle_left": {"X": 0.5, "Y": 1.0}, "interpolation": 0}]}, "red": {"Points": [{"handle_right": {"X": 0.5, "Y": 0.0}, "co": {"X": 1.0, "Y": 0.0}, "handle_type": 0, "handle_left": {"X": 0.5, "Y": 1.0}, "interpolation": 0}]}, "green": {"Points": [{"handle_right": {"X": 0.5, "Y": 0.0}, "co": {"X": 1.0, "Y": 123.0}, "handle_type": 0, "handle_left": {"X": 0.5, "Y": 1.0}, "interpolation": 0}]}, "blue": {"Points": [{"handle_right": {"X": 0.5, "Y": 0.0}, "co": {"X": 1.0, "Y": 255.0}, "handle_type": 0, "handle_left": {"X": 0.5, "Y": 1.0}, "interpolation": 0}]}}, "position": 4, "perspective_c3_y": {"Points": [{"co": {"X": 1.0, "Y": -1.0}, "interpolation": 2}]}, "end": 4, "anchor": 0, "perspective_c2_y": {"Points": [{"co": {"X": 1.0, "Y": -1.0}, "interpolation": 2}]}, "perspective_c3_x": {"Points": [{"co": {"X": 1.0, "Y": -1.0}, "interpolation": 2}]}, "location_y": {"Points": [{"co": {"X": 1.0, "Y": 0.0}, "interpolation": 2}]}, "image": "C:\\Users\\guilh\\.openshot_qt\\thumbnail\\PYV11IWDZ8.png", "title": "Tri-A2.mp4", "id": "FAZA5U0TFK", "shear_x": {"Points": [{"co": {"X": 1.0, "Y": 0.0}, "interpolation": 2}]}, "rotation": {"Points": [{"co": {"X": 1.0, "Y": 0.0}, "interpolation": 2}]}, "display": 0, "crop_width": {"Points": [{"co": {"X": 1.0, "Y": -1.0}, "interpolation": 2}]}, "perspective_c4_y": {"Points": [{"co": {"X": 1.0, "Y": -1.0}, "interpolation": 2}]}, "volume": {"Points": [{"co": {"X": 1.0, "Y": 1.0}, "interpolation": 2}]}, "reader": {"has_audio": false, "display_ratio": {"den": 9, "num": 16}, "channels": 0, "width": 1920, "video_stream_index": 0, "has_video": true, "audio_bit_rate": 0, "duration": 4.0, "audio_timebase": {"den": 1, "num": 1}, "pixel_format": 0, "channel_layout": 4, "audio_stream_index": -1, "interlaced_frame": false, "file_size": "456281", "vcodec": "h264", "type": "FFmpegReader", "acodec": "", "fps": {"den": 1, "num": 25}, "top_field_first": true, "video_bit_rate": 912562, "height": 1080, "path": "D:/Dropbox/_2 Projetos Pessoais/Formas/Tri-A2.mp4", "video_length": "100", "has_single_image": false, "pixel_ratio": {"den": 1, "num": 1}, "sample_rate": 0, "video_timebase": {"den": 25, "num": 1}}, "perspective_c4_x": {"Points": [{"co": {"X": 1.0, "Y": -1.0}, "interpolation": 2}]}, "crop_y": {"Points": [{"co": {"X": 1.0, "Y": 0.0}, "interpolation": 2}]}, "has_video": {"Points": [{"co": {"X": 1.0, "Y": -1.0}, "interpolation": 2}]}, "channel_mapping": {"Points": [{"co": {"X": 1.0, "Y": -1.0}, "interpolation": 2}]}, "layer": 2, "time": {"Points": [{"co": {"X": 1.0, "Y": 0.0}, "interpolation": 2}]}, "scale_x": {"Points": [{"co": {"X": 1.0, "Y": 1.0}, "interpolation": 2}]}, "has_audio": {"Points": [{"co": {"X": 1.0, "Y": -1.0}, "interpolation": 2}]}, "waveform": false, "location_x": {"Points": [{"co": {"X": 1.0, "Y": 0.0}, "interpolation": 2}]}, "duration": 4.0, "perspective_c1_y": {"Points": [{"co": {"X": 1.0, "Y": -1.0}, "interpolation": 2}]}, "start": 0, "shear_y": {"Points": [{"co": {"X": 1.0, "Y": 0.0}, "interpolation": 2}]}, "perspective_c1_x": {"Points": [{"co": {"X": 1.0, "Y": -1.0}, "interpolation": 2}]}, "crop_x": {"Points": [{"co": {"X": 1.0, "Y": 0.0}, "interpolation": 2}]}, "scale_y": {"Points": [{"co": {"X": 1.0, "Y": 1.0}, "interpolation": 2}]}, "effects": [], "channel_filter": {"Points": [{"co": {"X": 1.0, "Y": -1.0}, "interpolation": 2}]}, "gravity": 4, "scale": 1, "file_id": "PYV11IWDZ8", "crop_height": {"Points": [{"co": {"X": 1.0, "Y": -1.0}, "interpolation": 2}]}, "alpha": {"Points": [{"co": {"X": 1.0, "Y": 1.0}, "interpolation": 2}]}, "perspective_c2_x": {"Points": [{"co": {"X": 1.0, "Y": -1.0}, "interpolation": 2}]}}, {"wave_color": {"alpha": {"Points": [{"handle_right": {"X": 0.5, "Y": 0.0}, "co": {"X": 1.0, "Y": 255.0}, "handle_type": 0, "handle_left": {"X": 0.5, "Y": 1.0}, "interpolation": 0}]}, "red": {"Points": [{"handle_right": {"X": 0.5, "Y": 0.0}, "co": {"X": 1.0, "Y": 0.0}, "handle_type": 0, "handle_left": {"X": 0.5, "Y": 1.0}, "interpolation": 0}]}, "green": {"Points": [{"handle_right": {"X": 0.5, "Y": 0.0}, "co": {"X": 1.0, "Y": 123.0}, "handle_type": 0, "handle_left": {"X": 0.5, "Y": 1.0}, "interpolation": 0}]}, "blue": {"Points": [{"handle_right": {"X": 0.5, "Y": 0.0}, "co": {"X": 1.0, "Y": 255.0}, "handle_type": 0, "handle_left": {"X": 0.5, "Y": 1.0}, "interpolation": 0}]}}, "position": 5.833333333333332, "perspective_c3_y": {"Points": [{"co": {"X": 1.0, "Y": -1.0}, "interpolation": 2}]}, "end": 2.6799999999999997, "anchor": 0, "perspective_c2_y": {"Points": [{"co": {"X": 1.0, "Y": -1.0}, "interpolation": 2}]}, "perspective_c3_x": {"Points": [{"co": {"X": 1.0, "Y": -1.0}, "interpolation": 2}]}, "location_y": {"Points": [{"co": {"X": 1.0, "Y": 0.0}, "interpolation": 2}]}, "image": "C:\\Users\\guilh\\.openshot_qt\\thumbnail\\8TT4J552L8.png", "title": "Tri-A3.mp4", "id": "SRYZMWRV40", "shear_x": {"Points": [{"co": {"X": 1.0, "Y": 0.0}, "interpolation": 2}]}, "rotation": {"Points": [{"co": {"X": 1.0, "Y": 0.0}, "interpolation": 2}]}, "display": 0, "crop_width": {"Points": [{"co": {"X": 1.0, "Y": -1.0}, "interpolation": 2}]}, "perspective_c4_y": {"Points": [{"co": {"X": 1.0, "Y": -1.0}, "interpolation": 2}]}, "volume": {"Points": [{"co": {"X": 1.0, "Y": 1.0}, "interpolation": 2}]}, "reader": {"has_audio": false, "display_ratio": {"den": 9, "num": 16}, "channels": 0, "width": 1920, "video_stream_index": 0, "has_video": true, "audio_bit_rate": 0, "duration": 4.0, "audio_timebase": {"den": 1, "num": 1}, "pixel_format": 0, "channel_layout": 4, "audio_stream_index": -1, "interlaced_frame": false, "file_size": "517185", "vcodec": "h264", "type": "FFmpegReader", "acodec": "", "fps": {"den": 1, "num": 25}, "top_field_first": true, "video_bit_rate": 1034370, "height": 1080, "path": "D:/Dropbox/_2 Projetos Pessoais/Formas/Tri-A3.mp4", "video_length": "100", "has_single_image": false, "pixel_ratio": {"den": 1, "num": 1}, "sample_rate": 0, "video_timebase": {"den": 25, "num": 1}}, "perspective_c4_x": {"Points": [{"co": {"X": 1.0, "Y": -1.0}, "interpolation": 2}]}, "crop_y": {"Points": [{"co": {"X": 1.0, "Y": 0.0}, "interpolation": 2}]}, "has_video": {"Points": [{"co": {"X": 1.0, "Y": -1.0}, "interpolation": 2}]}, "channel_mapping": {"Points": [{"co": {"X": 1.0, "Y": -1.0}, "interpolation": 2}]}, "layer": 3, "time": {"Points": [{"co": {"X": 1.0, "Y": 0.0}, "interpolation": 2}]}, "scale_x": {"Points": [{"co": {"X": 1.0, "Y": 1.0}, "interpolation": 2}]}, "has_audio": {"Points": [{"co": {"X": 1.0, "Y": -1.0}, "interpolation": 2}]}, "waveform": false, "location_x": {"Points": [{"co": {"X": 1.0, "Y": 0.0}, "interpolation": 2}]}, "duration": 4.0, "perspective_c1_y": {"Points": [{"co": {"X": 1.0, "Y": -1.0}, "interpolation": 2}]}, "start": 0, "shear_y": {"Points": [{"co": {"X": 1.0, "Y": 0.0}, "interpolation": 2}]}, "perspective_c1_x": {"Points": [{"co": {"X": 1.0, "Y": -1.0}, "interpolation": 2}]}, "crop_x": {"Points": [{"co": {"X": 1.0, "Y": 0.0}, "interpolation": 2}]}, "scale_y": {"Points": [{"co": {"X": 1.0, "Y": 1.0}, "interpolation": 2}]}, "effects": [], "channel_filter": {"Points": [{"co": {"X": 1.0, "Y": -1.0}, "interpolation": 2}]}, "gravity": 4, "scale": 1, "file_id": "8TT4J552L8", "crop_height": {"Points": [{"co": {"X": 1.0, "Y": -1.0}, "interpolation": 2}]}, "alpha": {"Points": [{"co": {"X": 1.0, "Y": 1.0}, "interpolation": 2}]}, "perspective_c2_x": {"Points": [{"co": {"X": 1.0, "Y": -1.0}, "interpolation": 2}]}}, {"wave_color": {"alpha": {"Points": [{"handle_right": {"X": 0.5, "Y": 0.0}, "co": {"X": 1.0, "Y": 255.0}, "handle_type": 0, "handle_left": {"X": 0.5, "Y": 1.0}, "interpolation": 0}]}, "red": {"Points": [{"handle_right": {"X": 0.5, "Y": 0.0}, "co": {"X": 1.0, "Y": 0.0}, "handle_type": 0, "handle_left": {"X": 0.5, "Y": 1.0}, "interpolation": 0}]}, "green": {"Points": [{"handle_right": {"X": 0.5, "Y": 0.0}, "co": {"X": 1.0, "Y": 123.0}, "handle_type": 0, "handle_left": {"X": 0.5, "Y": 1.0}, "interpolation": 0}]}, "blue": {"Points": [{"handle_right": {"X": 0.5, "Y": 0.0}, "co": {"X": 1.0, "Y": 255.0}, "handle_type": 0, "handle_left": {"X": 0.5, "Y": 1.0}, "interpolation": 0}]}}, "position": 7.499999999999999, "perspective_c3_y": {"Points": [{"co": {"X": 1.0, "Y": -1.0}, "interpolation": 2}]}, "end": 1.2100000000000002, "anchor": 0, "perspective_c2_y": {"Points": [{"co": {"X": 1.0, "Y": -1.0}, "interpolation": 2}]}, "perspective_c3_x": {"Points": [{"co": {"X": 1.0, "Y": -1.0}, "interpolation": 2}]}, "location_y": {"Points": [{"co": {"X": 1.0, "Y": 0.0}, "interpolation": 2}]}, "image": "C:\\Users\\guilh\\.openshot_qt\\thumbnail\\IG2WLFRRAF.png", "title": "Tri-A4.mp4", "id": "9XJ2NSW24T", "shear_x": {"Points": [{"co": {"X": 1.0, "Y": 0.0}, "interpolation": 2}]}, "rotation": {"Points": [{"co": {"X": 1.0, "Y": 0.0}, "interpolation": 2}]}, "display": 0, "crop_width": {"Points": [{"co": {"X": 1.0, "Y": -1.0}, "interpolation": 2}]}, "perspective_c4_y": {"Points": [{"co": {"X": 1.0, "Y": -1.0}, "interpolation": 2}]}, "volume": {"Points": [{"co": {"X": 1.0, "Y": 1.0}, "interpolation": 2}]}, "reader": {"has_audio": false, "display_ratio": {"den": 9, "num": 16}, "channels": 0, "width": 1920, "video_stream_index": 0, "has_video": true, "audio_bit_rate": 0, "duration": 4.0, "audio_timebase": {"den": 1, "num": 1}, "pixel_format": 0, "channel_layout": 4, "audio_stream_index": -1, "interlaced_frame": false, "file_size": "580245", "vcodec": "h264", "type": "FFmpegReader", "acodec": "", "fps": {"den": 1, "num": 25}, "top_field_first": true, "video_bit_rate": 1160490, "height": 1080, "path": "D:/Dropbox/_2 Projetos Pessoais/Formas/Tri-A4.mp4", "video_length": "100", "has_single_image": false, "pixel_ratio": {"den": 1, "num": 1}, "sample_rate": 0, "video_timebase": {"den": 25, "num": 1}}, "perspective_c4_x": {"Points": [{"co": {"X": 1.0, "Y": -1.0}, "interpolation": 2}]}, "crop_y": {"Points": [{"co": {"X": 1.0, "Y": 0.0}, "interpolation": 2}]}, "has_video": {"Points": [{"co": {"X": 1.0, "Y": -1.0}, "interpolation": 2}]}, "channel_mapping": {"Points": [{"co": {"X": 1.0, "Y": -1.0}, "interpolation": 2}]}, "layer": 4, "time": {"Points": [{"co": {"X": 1.0, "Y": 0.0}, "interpolation": 2}]}, "scale_x": {"Points": [{"co": {"X": 1.0, "Y": 1.0}, "interpolation": 2}]}, "has_audio": {"Points": [{"co": {"X": 1.0, "Y": -1.0}, "interpolation": 2}]}, "waveform": false, "location_x": {"Points": [{"co": {"X": 1.0, "Y": 0.0}, "interpolation": 2}]}, "duration": 4.0, "perspective_c1_y": {"Points": [{"co": {"X": 1.0, "Y": -1.0}, "interpolation": 2}]}, "start": 0, "shear_y": {"Points": [{"co": {"X": 1.0, "Y": 0.0}, "interpolation": 2}]}, "perspective_c1_x": {"Points": [{"co": {"X": 1.0, "Y": -1.0}, "interpolation": 2}]}, "crop_x": {"Points": [{"co": {"X": 1.0, "Y": 0.0}, "interpolation": 2}]}, "scale_y": {"Points": [{"co": {"X": 1.0, "Y": 1.0}, "interpolation": 2}]}, "effects": [], "channel_filter": {"Points": [{"co": {"X": 1.0, "Y": -1.0}, "interpolation": 2}]}, "gravity": 4, "scale": 1, "file_id": "IG2WLFRRAF", "crop_height": {"Points": [{"co": {"X": 1.0, "Y": -1.0}, "interpolation": 2}]}, "alpha": {"Points": [{"co": {"X": 1.0, "Y": 1.0}, "interpolation": 2}]}, "perspective_c2_x": {"Points": [{"co": {"X": 1.0, "Y": -1.0}, "interpolation": 2}]}}, {"wave_color": {"alpha": {"Points": [{"handle_right": {"X": 0.5, "Y": 0.0}, "co": {"X": 1.0, "Y": 255.0}, "handle_type": 0, "handle_left": {"X": 0.5, "Y": 1.0}, "interpolation": 0}]}, "red": {"Points": [{"handle_right": {"X": 0.5, "Y": 0.0}, "co": {"X": 1.0, "Y": 0.0}, "handle_type": 0, "handle_left": {"X": 0.5, "Y": 1.0}, "interpolation": 0}]}, "green": {"Points": [{"handle_right": {"X": 0.5, "Y": 0.0}, "co": {"X": 1.0, "Y": 123.0}, "handle_type": 0, "handle_left": {"X": 0.5, "Y": 1.0}, "interpolation": 0}]}, "blue": {"Points": [{"handle_right": {"X": 0.5, "Y": 0.0}, "co": {"X": 1.0, "Y": 255.0}, "handle_type": 0, "handle_left": {"X": 0.5, "Y": 1.0}, "interpolation": 0}]}}, "position": 8, "perspective_c3_y": {"Points": [{"co": {"X": 1.0, "Y": -1.0}, "interpolation": 2}]}, "end": 4, "anchor": 0, "perspective_c2_y": {"Points": [{"co": {"X": 1.0, "Y": -1.0}, "interpolation": 2}]}, "perspective_c3_x": {"Points": [{"co": {"X": 1.0, "Y": -1.0}, "interpolation": 2}]}, "location_y": {"Points": [{"co": {"X": 1.0, "Y": 0.0}, "interpolation": 2}]}, "image": "C:\\Users\\guilh\\.openshot_qt\\thumbnail\\9FO52AB8FV.png", "title": "Qua-A1.mp4", "id": "TAX6RO4IIG", "shear_x": {"Points": [{"co": {"X": 1.0, "Y": 0.0}, "interpolation": 2}]}, "rotation": {"Points": [{"co": {"X": 1.0, "Y": 0.0}, "interpolation": 2}]}, "display": 0, "crop_width": {"Points": [{"co": {"X": 1.0, "Y": -1.0}, "interpolation": 2}]}, "perspective_c4_y": {"Points": [{"co": {"X": 1.0, "Y": -1.0}, "interpolation": 2}]}, "volume": {"Points": [{"co": {"X": 1.0, "Y": 1.0}, "interpolation": 2}]}, "reader": {"has_audio": false, "display_ratio": {"den": 9, "num": 16}, "channels": 0, "width": 1920, "video_stream_index": 0, "has_video": true, "audio_bit_rate": 0, "duration": 4.0, "audio_timebase": {"den": 1, "num": 1}, "pixel_format": 0, "channel_layout": 4, "audio_stream_index": -1, "interlaced_frame": false, "file_size": "80944", "vcodec": "h264", "type": "FFmpegReader", "acodec": "", "fps": {"den": 1, "num": 25}, "top_field_first": true, "video_bit_rate": 161888, "height": 1080, "path": "D:/Dropbox/_2 Projetos Pessoais/Formas/Qua-A1.mp4", "video_length": "100", "has_single_image": false, "pixel_ratio": {"den": 1, "num": 1}, "sample_rate": 0, "video_timebase": {"den": 25, "num": 1}}, "perspective_c4_x": {"Points": [{"co": {"X": 1.0, "Y": -1.0}, "interpolation": 2}]}, "crop_y": {"Points": [{"co": {"X": 1.0, "Y": 0.0}, "interpolation": 2}]}, "has_video": {"Points": [{"co": {"X": 1.0, "Y": -1.0}, "interpolation": 2}]}, "channel_mapping": {"Points": [{"co": {"X": 1.0, "Y": -1.0}, "interpolation": 2}]}, "layer": 1, "time": {"Points": [{"co": {"X": 1.0, "Y": 0.0}, "interpolation": 2}]}, "scale_x": {"Points": [{"co": {"X": 1.0, "Y": 1.0}, "interpolation": 2}]}, "has_audio": {"Points": [{"co": {"X": 1.0, "Y": -1.0}, "interpolation": 2}]}, "waveform": false, "location_x": {"Points": [{"co": {"X": 1.0, "Y": 0.0}, "interpolation": 2}]}, "duration": 4.0, "perspective_c1_y": {"Points": [{"co": {"X": 1.0, "Y": -1.0}, "interpolation": 2}]}, "start": 0, "shear_y": {"Points": [{"co": {"X": 1.0, "Y": 0.0}, "interpolation": 2}]}, "perspective_c1_x": {"Points": [{"co": {"X": 1.0, "Y": -1.0}, "interpolation": 2}]}, "crop_x": {"Points": [{"co": {"X": 1.0, "Y": 0.0}, "interpolation": 2}]}, "scale_y": {"Points": [{"co": {"X": 1.0, "Y": 1.0}, "interpolation": 2}]}, "effects": [], "channel_filter": {"Points": [{"co": {"X": 1.0, "Y": -1.0}, "interpolation": 2}]}, "gravity": 4, "scale": 1, "file_id": "9FO52AB8FV", "crop_height": {"Points": [{"co": {"X": 1.0, "Y": -1.0}, "interpolation": 2}]}, "alpha": {"Points": [{"co": {"X": 1.0, "Y": 1.0}, "interpolation": 2}]}, "perspective_c2_x": {"Points": [{"co": {"X": 1.0, "Y": -1.0}, "interpolation": 2}]}}, {"wave_color": {"alpha": {"Points": [{"handle_right": {"X": 0.5, "Y": 0.0}, "co": {"X": 1.0, "Y": 255.0}, "handle_type": 0, "handle_left": {"X": 0.5, "Y": 1.0}, "interpolation": 0}]}, "red": {"Points": [{"handle_right": {"X": 0.5, "Y": 0.0}, "co": {"X": 1.0, "Y": 0.0}, "handle_type": 0, "handle_left": {"X": 0.5, "Y": 1.0}, "interpolation": 0}]}, "green": {"Points": [{"handle_right": {"X": 0.5, "Y": 0.0}, "co": {"X": 1.0, "Y": 123.0}, "handle_type": 0, "handle_left": {"X": 0.5, "Y": 1.0}, "interpolation": 0}]}, "blue": {"Points": [{"handle_right": {"X": 0.5, "Y": 0.0}, "co": {"X": 1.0, "Y": 255.0}, "handle_type": 0, "handle_left": {"X": 0.5, "Y": 1.0}, "interpolation": 0}]}}, "position": 9.6665625, "perspective_c3_y": {"Points": [{"co": {"X": 1.0, "Y": -1.0}, "interpolation": 2}]}, "end": 2.17, "anchor": 0, "perspective_c2_y": {"Points": [{"co": {"X": 1.0, "Y": -1.0}, "interpolation": 2}]}, "perspective_c3_x": {"Points": [{"co": {"X": 1.0, "Y": -1.0}, "interpolation": 2}]}, "location_y": {"Points": [{"co": {"X": 1.0, "Y": 0.0}, "interpolation": 2}]}, "image": "C:\\Users\\guilh\\.openshot_qt\\thumbnail\\21CH8FSMMS.png", "title": "Qua-B3.mp4", "id": "PSF8KXJF3S", "shear_x": {"Points": [{"co": {"X": 1.0, "Y": 0.0}, "interpolation": 2}]}, "rotation": {"Points": [{"co": {"X": 1.0, "Y": 0.0}, "interpolation": 2}]}, "display": 0, "crop_width": {"Points": [{"co": {"X": 1.0, "Y": -1.0}, "interpolation": 2}]}, "perspective_c4_y": {"Points": [{"co": {"X": 1.0, "Y": -1.0}, "interpolation": 2}]}, "volume": {"Points": [{"co": {"X": 1.0, "Y": 1.0}, "interpolation": 2}]}, "reader": {"has_audio": false, "display_ratio": {"den": 9, "num": 16}, "channels": 0, "width": 1920, "video_stream_index": 0, "has_video": true, "audio_bit_rate": 0, "duration": 4.0, "audio_timebase": {"den": 1, "num": 1}, "pixel_format": 0, "channel_layout": 4, "audio_stream_index": -1, "interlaced_frame": false, "file_size": "88576", "vcodec": "h264", "type": "FFmpegReader", "acodec": "", "fps": {"den": 1, "num": 25}, "top_field_first": true, "video_bit_rate": 177152, "height": 1080, "path": "D:/Dropbox/_2 Projetos Pessoais/Formas/Qua-B3.mp4", "video_length": "100", "has_single_image": false, "pixel_ratio": {"den": 1, "num": 1}, "sample_rate": 0, "video_timebase": {"den": 25, "num": 1}}, "perspective_c4_x": {"Points": [{"co": {"X": 1.0, "Y": -1.0}, "interpolation": 2}]}, "crop_y": {"Points": [{"co": {"X": 1.0, "Y": 0.0}, "interpolation": 2}]}, "has_video": {"Points": [{"co": {"X": 1.0, "Y": -1.0}, "interpolation": 2}]}, "channel_mapping": {"Points": [{"co": {"X": 1.0, "Y": -1.0}, "interpolation": 2}]}, "layer": 2, "time": {"Points": [{"co": {"X": 1.0, "Y": 0.0}, "interpolation": 2}]}, "scale_x": {"Points": [{"co": {"X": 1.0, "Y": 1.0}, "interpolation": 2}]}, "has_audio": {"Points": [{"co": {"X": 1.0, "Y": -1.0}, "interpolation": 2}]}, "waveform": false, "location_x": {"Points": [{"co": {"X": 1.0, "Y": 0.0}, "interpolation": 2}]}, "duration": 4.0, "perspective_c1_y": {"Points": [{"co": {"X": 1.0, "Y": -1.0}, "interpolation": 2}]}, "start": 0, "shear_y": {"Points": [{"co": {"X": 1.0, "Y": 0.0}, "interpolation": 2}]}, "perspective_c1_x": {"Points": [{"co": {"X": 1.0, "Y": -1.0}, "interpolation": 2}]}, "crop_x": {"Points": [{"co": {"X": 1.0, "Y": 0.0}, "interpolation": 2}]}, "scale_y": {"Points": [{"co": {"X": 1.0, "Y": 1.0}, "interpolation": 2}]}, "effects": [], "channel_filter": {"Points": [{"co": {"X": 1.0, "Y": -1.0}, "interpolation": 2}]}, "gravity": 4, "scale": 1, "file_id": "21CH8FSMMS", "crop_height": {"Points": [{"co": {"X": 1.0, "Y": -1.0}, "interpolation": 2}]}, "alpha": {"Points": [{"co": {"X": 1.0, "Y": 1.0}, "interpolation": 2}]}, "perspective_c2_x": {"Points": [{"co": {"X": 1.0, "Y": -1.0}, "interpolation": 2}]}}, {"wave_color": {"alpha": {"Points": [{"handle_right": {"X": 0.5, "Y": 0.0}, "co": {"X": 1.0, "Y": 255.0}, "handle_type": 0, "handle_left": {"X": 0.5, "Y": 1.0}, "interpolation": 0}]}, "red": {"Points": [{"handle_right": {"X": 0.5, "Y": 0.0}, "co": {"X": 1.0, "Y": 0.0}, "handle_type": 0, "handle_left": {"X": 0.5, "Y": 1.0}, "interpolation": 0}]}, "green": {"Points": [{"handle_right": {"X": 0.5, "Y": 0.0}, "co": {"X": 1.0, "Y": 123.0}, "handle_type": 0, "handle_left": {"X": 0.5, "Y": 1.0}, "interpolation": 0}]}, "blue": {"Points": [{"handle_right": {"X": 0.5, "Y": 0.0}, "co": {"X": 1.0, "Y": 255.0}, "handle_type": 0, "handle_left": {"X": 0.5, "Y": 1.0}, "interpolation": 0}]}}, "position": 10.44, "perspective_c3_y": {"Points": [{"co": {"X": 1.0, "Y": -1.0}, "interpolation": 2}]}, "end": 1.4200000000000004, "anchor": 0, "perspective_c2_y": {"Points": [{"co": {"X": 1.0, "Y": -1.0}, "interpolation": 2}]}, "perspective_c3_x": {"Points": [{"co": {"X": 1.0, "Y": -1.0}, "interpolation": 2}]}, "location_y": {"Points": [{"co": {"X": 1.0, "Y": 0.0}, "interpolation": 2}]}, "image": "C:\\Users\\guilh\\.openshot_qt\\thumbnail\\0OPUORDPR8.png", "title": "Qua-C1.mp4", "id": "I19WAOHP5G", "shear_x": {"Points": [{"co": {"X": 1.0, "Y": 0.0}, "interpolation": 2}]}, "rotation": {"Points": [{"co": {"X": 1.0, "Y": 0.0}, "interpolation": 2}]}, "display": 0, "crop_width": {"Points": [{"co": {"X": 1.0, "Y": -1.0}, "interpolation": 2}]}, "perspective_c4_y": {"Points": [{"co": {"X": 1.0, "Y": -1.0}, "interpolation": 2}]}, "volume": {"Points": [{"co": {"X": 1.0, "Y": 1.0}, "interpolation": 2}]}, "reader": {"has_audio": false, "display_ratio": {"den": 9, "num": 16}, "channels": 0, "width": 1920, "video_stream_index": 0, "has_video": true, "audio_bit_rate": 0, "duration": 4.0, "audio_timebase": {"den": 1, "num": 1}, "pixel_format": 0, "channel_layout": 4, "audio_stream_index": -1, "interlaced_frame": false, "file_size": "889434", "vcodec": "h264", "type": "FFmpegReader", "acodec": "", "fps": {"den": 1, "num": 25}, "top_field_first": true, "video_bit_rate": 1778868, "height": 1080, "path": "D:/Dropbox/_2 Projetos Pessoais/Formas/Qua-C1.mp4", "video_length": "100", "has_single_image": false, "pixel_ratio": {"den": 1, "num": 1}, "sample_rate": 0, "video_timebase": {"den": 25, "num": 1}}, "perspective_c4_x": {"Points": [{"co": {"X": 1.0, "Y": -1.0}, "interpolation": 2}]}, "crop_y": {"Points": [{"co": {"X": 1.0, "Y": 0.0}, "interpolation": 2}]}, "has_video": {"Points": [{"co": {"X": 1.0, "Y": -1.0}, "interpolation": 2}]}, "channel_mapping": {"Points": [{"co": {"X": 1.0, "Y": -1.0}, "interpolation": 2}]}, "layer": 3, "time": {"Points": [{"co": {"X": 1.0, "Y": 0.0}, "interpolation": 2}]}, "scale_x": {"Points": [{"co": {"X": 1.0, "Y": 1.0}, "interpolation": 2}]}, "has_audio": {"Points": [{"co": {"X": 1.0, "Y": -1.0}, "interpolation": 2}]}, "waveform": false, "location_x": {"Points": [{"co": {"X": 1.0, "Y": 0.0}, "interpolation": 2}]}, "duration": 4.0, "perspective_c1_y": {"Points": [{"co": {"X": 1.0, "Y": -1.0}, "interpolation": 2}]}, "start": 0, "shear_y": {"Points": [{"co": {"X": 1.0, "Y": 0.0}, "interpolation": 2}]}, "perspective_c1_x": {"Points": [{"co": {"X": 1.0, "Y": -1.0}, "interpolation": 2}]}, "crop_x": {"Points": [{"co": {"X": 1.0, "Y": 0.0}, "interpolation": 2}]}, "scale_y": {"Points": [{"co": {"X": 1.0, "Y": 1.0}, "interpolation": 2}]}, "effects": [], "channel_filter": {"Points": [{"co": {"X": 1.0, "Y": -1.0}, "interpolation": 2}]}, "gravity": 4, "scale": 1, "file_id": "0OPUORDPR8", "crop_height": {"Points": [{"co": {"X": 1.0, "Y": -1.0}, "interpolation": 2}]}, "alpha": {"Points": [{"co": {"X": 1.0, "Y": 1.0}, "interpolation": 2}]}, "perspective_c2_x": {"Points": [{"co": {"X": 1.0, "Y": -1.0}, "interpolation": 2}]}}, {"wave_color": {"alpha": {"Points": [{"handle_right": {"X": 0.5, "Y": 0.0}, "co": {"X": 1.0, "Y": 255.0}, "handle_type": 0, "handle_left": {"X": 0.5, "Y": 1.0}, "interpolation": 0}]}, "red": {"Points": [{"handle_right": {"X": 0.5, "Y": 0.0}, "co": {"X": 1.0, "Y": 0.0}, "handle_type": 0, "handle_left": {"X": 0.5, "Y": 1.0}, "interpolation": 0}]}, "green": {"Points": [{"handle_right": {"X": 0.5, "Y": 0.0}, "co": {"X": 1.0, "Y": 123.0}, "handle_type": 0, "handle_left": {"X": 0.5, "Y": 1.0}, "interpolation": 0}]}, "blue": {"Points": [{"handle_right": {"X": 0.5, "Y": 0.0}, "co": {"X": 1.0, "Y": 255.0}, "handle_type": 0, "handle_left": {"X": 0.5, "Y": 1.0}, "interpolation": 0}]}}, "position": 11.291666666666666, "perspective_c3_y": {"Points": [{"co": {"X": 1.0, "Y": -1.0}, "interpolation": 2}]}, "end": 0.9700000000000004, "anchor": 0, "perspective_c2_y": {"Points": [{"co": {"X": 1.0, "Y": -1.0}, "interpolation": 2}]}, "perspective_c3_x": {"Points": [{"co": {"X": 1.0, "Y": -1.0}, "interpolation": 2}]}, "location_y": {"Points": [{"co": {"X": 1.0, "Y": 0.0}, "interpolation": 2}]}, "image": "C:\\Users\\guilh\\.openshot_qt\\thumbnail\\IEDSP73YFZ.png", "title": "Qua-D1.mp4", "id": "KUWCVJE9LM", "shear_x": {"Points": [{"co": {"X": 1.0, "Y": 0.0}, "interpolation": 2}]}, "rotation": {"Points": [{"co": {"X": 1.0, "Y": 0.0}, "interpolation": 2}]}, "display": 0, "crop_width": {"Points": [{"co": {"X": 1.0, "Y": -1.0}, "interpolation": 2}]}, "perspective_c4_y": {"Points": [{"co": {"X": 1.0, "Y": -1.0}, "interpolation": 2}]}, "volume": {"Points": [{"co": {"X": 1.0, "Y": 1.0}, "interpolation": 2}]}, "reader": {"has_audio": false, "display_ratio": {"den": 9, "num": 16}, "channels": 0, "width": 1920, "video_stream_index": 0, "has_video": true, "audio_bit_rate": 0, "duration": 4.0, "audio_timebase": {"den": 1, "num": 1}, "pixel_format": 0, "channel_layout": 4, "audio_stream_index": -1, "interlaced_frame": false, "file_size": "4629786", "vcodec": "h264", "type": "FFmpegReader", "acodec": "", "fps": {"den": 1, "num": 25}, "top_field_first": true, "video_bit_rate": 9259572, "height": 1080, "path": "D:/Dropbox/_2 Projetos Pessoais/Formas/Qua-D1.mp4", "video_length": "100", "has_single_image": false, "pixel_ratio": {"den": 1, "num": 1}, "sample_rate": 0, "video_timebase": {"den": 25, "num": 1}}, "perspective_c4_x": {"Points": [{"co": {"X": 1.0, "Y": -1.0}, "interpolation": 2}]}, "crop_y": {"Points": [{"co": {"X": 1.0, "Y": 0.0}, "interpolation": 2}]}, "has_video": {"Points": [{"co": {"X": 1.0, "Y": -1.0}, "interpolation": 2}]}, "channel_mapping": {"Points": [{"co": {"X": 1.0, "Y": -1.0}, "interpolation": 2}]}, "layer": 4, "time": {"Points": [{"co": {"X": 1.0, "Y": 0.0}, "interpolation": 2}]}, "scale_x": {"Points": [{"co": {"X": 1.0, "Y": 1.0}, "interpolation": 2}]}, "has_audio": {"Points": [{"co": {"X": 1.0, "Y": -1.0}, "interpolation": 2}]}, "waveform": false, "location_x": {"Points": [{"co": {"X": 1.0, "Y": 0.0}, "interpolation": 2}]}, "duration": 4.0, "perspective_c1_y": {"Points": [{"co": {"X": 1.0, "Y": -1.0}, "interpolation": 2}]}, "start": 0, "shear_y": {"Points": [{"co": {"X": 1.0, "Y": 0.0}, "interpolation": 2}]}, "perspective_c1_x": {"Points": [{"co": {"X": 1.0, "Y": -1.0}, "interpolation": 2}]}, "crop_x": {"Points": [{"co": {"X": 1.0, "Y": 0.0}, "interpolation": 2}]}, "scale_y": {"Points": [{"co": {"X": 1.0, "Y": 1.0}, "interpolation": 2}]}, "effects": [], "channel_filter": {"Points": [{"co": {"X": 1.0, "Y": -1.0}, "interpolation": 2}]}, "gravity": 4, "scale": 1, "file_id": "IEDSP73YFZ", "crop_height": {"Points": [{"co": {"X": 1.0, "Y": -1.0}, "interpolation": 2}]}, "alpha": {"Points": [{"co": {"X": 1.0, "Y": 1.0}, "interpolation": 2}]}, "perspective_c2_x": {"Points": [{"co": {"X": 1.0, "Y": -1.0}, "interpolation": 2}]}}, {"wave_color": {"alpha": {"Points": [{"handle_right": {"X": 0.5, "Y": 0.0}, "co": {"X": 1.0, "Y": 255.0}, "handle_type": 0, "handle_left": {"X": 0.5, "Y": 1.0}, "interpolation": 0}]}, "red": {"Points": [{"handle_right": {"X": 0.5, "Y": 0.0}, "co": {"X": 1.0, "Y": 0.0}, "handle_type": 0, "handle_left": {"X": 0.5, "Y": 1.0}, "interpolation": 0}]}, "green": {"Points": [{"handle_right": {"X": 0.5, "Y": 0.0}, "co": {"X": 1.0, "Y": 123.0}, "handle_type": 0, "handle_left": {"X": 0.5, "Y": 1.0}, "interpolation": 0}]}, "blue": {"Points": [{"handle_right": {"X": 0.5, "Y": 0.0}, "co": {"X": 1.0, "Y": 255.0}, "handle_type": 0, "handle_left": {"X": 0.5, "Y": 1.0}, "interpolation": 0}]}}, "position": 12.166666666666666, "perspective_c3_y": {"Points": [{"co": {"X": 1.0, "Y": -1.0}, "interpolation": 2}]}, "end": 1.3000000000000003, "anchor": 0, "perspective_c2_y": {"Points": [{"co": {"X": 1.0, "Y": -1.0}, "interpolation": 2}]}, "perspective_c3_x": {"Points": [{"co": {"X": 1.0, "Y": -1.0}, "interpolation": 2}]}, "location_y": {"Points": [{"co": {"X": 1.0, "Y": 0.0}, "interpolation": 2}]}, "image": "C:\\Users\\guilh\\.openshot_qt\\thumbnail\\VXNRNNPABP.png", "title": "Tri-B2.mp4", "id": "EEHD49DDQ5", "shear_x": {"Points": [{"co": {"X": 1.0, "Y": 0.0}, "interpolation": 2}]}, "rotation": {"Points": [{"co": {"X": 1.0, "Y": 0.0}, "interpolation": 2}]}, "display": 0, "crop_width": {"Points": [{"co": {"X": 1.0, "Y": -1.0}, "interpolation": 2}]}, "perspective_c4_y": {"Points": [{"co": {"X": 1.0, "Y": -1.0}, "interpolation": 2}]}, "volume": {"Points": [{"co": {"X": 1.0, "Y": 1.0}, "interpolation": 2}]}, "reader": {"has_audio": false, "display_ratio": {"den": 9, "num": 16}, "channels": 0, "width": 1920, "video_stream_index": 0, "has_video": true, "audio_bit_rate": 0, "duration": 4.0, "audio_timebase": {"den": 1, "num": 1}, "pixel_format": 0, "channel_layout": 4, "audio_stream_index": -1, "interlaced_frame": false, "file_size": "1409207", "vcodec": "h264", "type": "FFmpegReader", "acodec": "", "fps": {"den": 1, "num": 25}, "top_field_first": true, "video_bit_rate": 2818414, "height": 1080, "path": "D:/Dropbox/_2 Projetos Pessoais/Formas/Tri-B2.mp4", "video_length": "100", "has_single_image": false, "pixel_ratio": {"den": 1, "num": 1}, "sample_rate": 0, "video_timebase": {"den": 25, "num": 1}}, "perspective_c4_x": {"Points": [{"co": {"X": 1.0, "Y": -1.0}, "interpolation": 2}]}, "crop_y": {"Points": [{"co": {"X": 1.0, "Y": 0.0}, "interpolation": 2}]}, "has_video": {"Points": [{"co": {"X": 1.0, "Y": -1.0}, "interpolation": 2}]}, "channel_mapping": {"Points": [{"co": {"X": 1.0, "Y": -1.0}, "interpolation": 2}]}, "layer": 3, "time": {"Points": [{"co": {"X": 1.0, "Y": 0.0}, "interpolation": 2}]}, "scale_x": {"Points": [{"co": {"X": 1.0, "Y": 1.0}, "interpolation": 2}]}, "has_audio": {"Points": [{"co": {"X": 1.0, "Y": -1.0}, "interpolation": 2}]}, "waveform": false, "location_x": {"Points": [{"co": {"X": 1.0, "Y": 0.0}, "interpolation": 2}]}, "duration": 4.0, "perspective_c1_y": {"Points": [{"co": {"X": 1.0, "Y": -1.0}, "interpolation": 2}]}, "start": 0, "shear_y": {"Points": [{"co": {"X": 1.0, "Y": 0.0}, "interpolation": 2}]}, "perspective_c1_x": {"Points": [{"co": {"X": 1.0, "Y": -1.0}, "interpolation": 2}]}, "crop_x": {"Points": [{"co": {"X": 1.0, "Y": 0.0}, "interpolation": 2}]}, "scale_y": {"Points": [{"co": {"X": 1.0, "Y": 1.0}, "interpolation": 2}]}, "effects": [], "channel_filter": {"Points": [{"co": {"X": 1.0, "Y": -1.0}, "interpolation": 2}]}, "gravity": 4, "scale": 1, "file_id": "VXNRNNPABP", "crop_height": {"Points": [{"co": {"X": 1.0, "Y": -1.0}, "interpolation": 2}]}, "alpha": {"Points": [{"co": {"X": 1.0, "Y": 1.0}, "interpolation": 2}]}, "perspective_c2_x": {"Points": [{"co": {"X": 1.0, "Y": -1.0}, "interpolation": 2}]}}, {"wave_color": {"alpha": {"Points": [{"handle_right": {"X": 0.5, "Y": 0.0}, "co": {"X": 1.0, "Y": 255.0}, "handle_type": 0, "handle_left": {"X": 0.5, "Y": 1.0}, "interpolation": 0}]}, "red": {"Points": [{"handle_right": {"X": 0.5, "Y": 0.0}, "co": {"X": 1.0, "Y": 0.0}, "handle_type": 0, "handle_left": {"X": 0.5, "Y": 1.0}, "interpolation": 0}]}, "green": {"Points": [{"handle_right": {"X": 0.5, "Y": 0.0}, "co": {"X": 1.0, "Y": 123.0}, "handle_type": 0, "handle_left": {"X": 0.5, "Y": 1.0}, "interpolation": 0}]}, "blue": {"Points": [{"handle_right": {"X": 0.5, "Y": 0.0}, "co": {"X": 1.0, "Y": 255.0}, "handle_type": 0, "handle_left": {"X": 0.5, "Y": 1.0}, "interpolation": 0}]}}, "position": 13.466249999999999, "perspective_c3_y": {"Points": [{"co": {"X": 1.0, "Y": -1.0}, "interpolation": 2}]}, "end": 1.4800000000000004, "anchor": 0, "perspective_c2_y": {"Points": [{"co": {"X": 1.0, "Y": -1.0}, "interpolation": 2}]}, "perspective_c3_x": {"Points": [{"co": {"X": 1.0, "Y": -1.0}, "interpolation": 2}]}, "location_y": {"Points": [{"co": {"X": 1.0, "Y": 0.0}, "interpolation": 2}]}, "image": "C:\\Users\\guilh\\.openshot_qt\\thumbnail\\Y1IDCGLDXP.png", "title": "Tri-D1.mp4", "id": "A3XLBOJHI4", "shear_x": {"Points": [{"co": {"X": 1.0, "Y": 0.0}, "interpolation": 2}]}, "rotation": {"Points": [{"co": {"X": 1.0, "Y": 0.0}, "interpolation": 2}]}, "display": 0, "crop_width": {"Points": [{"co": {"X": 1.0, "Y": -1.0}, "interpolation": 2}]}, "perspective_c4_y": {"Points": [{"co": {"X": 1.0, "Y": -1.0}, "interpolation": 2}]}, "volume": {"Points": [{"co": {"X": 1.0, "Y": 1.0}, "interpolation": 2}]}, "reader": {"has_audio": false, "display_ratio": {"den": 9, "num": 16}, "channels": 0, "width": 1920, "video_stream_index": 0, "has_video": true, "audio_bit_rate": 0, "duration": 4.0, "audio_timebase": {"den": 1, "num": 1}, "pixel_format": 0, "channel_layout": 4, "audio_stream_index": -1, "interlaced_frame": false, "file_size": "264158", "vcodec": "h264", "type": "FFmpegReader", "acodec": "", "fps": {"den": 1, "num": 25}, "top_field_first": true, "video_bit_rate": 528316, "height": 1080, "path": "D:/Dropbox/_2 Projetos Pessoais/Formas/Tri-D1.mp4", "video_length": "100", "has_single_image": false, "pixel_ratio": {"den": 1, "num": 1}, "sample_rate": 0, "video_timebase": {"den": 25, "num": 1}}, "perspective_c4_x": {"Points": [{"co": {"X": 1.0, "Y": -1.0}, "interpolation": 2}]}, "crop_y": {"Points": [{"co": {"X": 1.0, "Y": 0.0}, "interpolation": 2}]}, "has_video": {"Points": [{"co": {"X": 1.0, "Y": -1.0}, "interpolation": 2}]}, "channel_mapping": {"Points": [{"co": {"X": 1.0, "Y": -1.0}, "interpolation": 2}]}, "layer": 2, "time": {"Points": [{"co": {"X": 1.0, "Y": 0.0}, "interpolation": 2}]}, "scale_x": {"Points": [{"co": {"X": 1.0, "Y": 1.0}, "interpolation": 2}]}, "has_audio": {"Points": [{"co": {"X": 1.0, "Y": -1.0}, "interpolation": 2}]}, "waveform": false, "location_x": {"Points": [{"co": {"X": 1.0, "Y": 0.0}, "interpolation": 2}]}, "duration": 4.0, "perspective_c1_y": {"Points": [{"co": {"X": 1.0, "Y": -1.0}, "interpolation": 2}]}, "start": 0, "shear_y": {"Points": [{"co": {"X": 1.0, "Y": 0.0}, "interpolation": 2}]}, "perspective_c1_x": {"Points": [{"co": {"X": 1.0, "Y": -1.0}, "interpolation": 2}]}, "crop_x": {"Points": [{"co": {"X": 1.0, "Y": 0.0}, "interpolation": 2}]}, "scale_y": {"Points": [{"co": {"X": 1.0, "Y": 1.0}, "interpolation": 2}]}, "effects": [], "channel_filter": {"Points": [{"co": {"X": 1.0, "Y": -1.0}, "interpolation": 2}]}, "gravity": 4, "scale": 1, "file_id": "Y1IDCGLDXP", "crop_height": {"Points": [{"co": {"X": 1.0, "Y": -1.0}, "interpolation": 2}]}, "alpha": {"Points": [{"co": {"X": 1.0, "Y": 1.0}, "interpolation": 2}]}, "perspective_c2_x": {"Points": [{"co": {"X": 1.0, "Y": -1.0}, "interpolation": 2}]}}, {"wave_color": {"alpha": {"Points": [{"handle_right": {"X": 0.5, "Y": 0.0}, "co": {"X": 1.0, "Y": 255.0}, "handle_type": 0, "handle_left": {"X": 0.5, "Y": 1.0}, "interpolation": 0}]}, "red": {"Points": [{"handle_right": {"X": 0.5, "Y": 0.0}, "co": {"X": 1.0, "Y": 0.0}, "handle_type": 0, "handle_left": {"X": 0.5, "Y": 1.0}, "interpolation": 0}]}, "green": {"Points": [{"handle_right": {"X": 0.5, "Y": 0.0}, "co": {"X": 1.0, "Y": 123.0}, "handle_type": 0, "handle_left": {"X": 0.5, "Y": 1.0}, "interpolation": 0}]}, "blue": {"Points": [{"handle_right": {"X": 0.5, "Y": 0.0}, "co": {"X": 1.0, "Y": 255.0}, "handle_type": 0, "handle_left": {"X": 0.5, "Y": 1.0}, "interpolation": 0}]}}, "position": 14.94609375, "perspective_c3_y": {"Points": [{"co": {"X": 1.0, "Y": -1.0}, "interpolation": 2}]}, "end": 2.5, "anchor": 0, "perspective_c2_y": {"Points": [{"co": {"X": 1.0, "Y": -1.0}, "interpolation": 2}]}, "perspective_c3_x": {"Points": [{"co": {"X": 1.0, "Y": -1.0}, "interpolation": 2}]}, "location_y": {"Points": [{"co": {"X": 1.0, "Y": 0.0}, "interpolation": 2}]}, "image": "C:\\Users\\guilh\\.openshot_qt\\thumbnail\\FQMUYQJMMQ.png", "title": "Tri-C1.mp4", "id": "S77VZ5907C", "shear_x": {"Points": [{"co": {"X": 1.0, "Y": 0.0}, "interpolation": 2}]}, "rotation": {"Points": [{"co": {"X": 1.0, "Y": 0.0}, "interpolation": 2}]}, "display": 0, "crop_width": {"Points": [{"co": {"X": 1.0, "Y": -1.0}, "interpolation": 2}]}, "perspective_c4_y": {"Points": [{"co": {"X": 1.0, "Y": -1.0}, "interpolation": 2}]}, "volume": {"Points": [{"co": {"X": 1.0, "Y": 1.0}, "interpolation": 2}]}, "reader": {"has_audio": false, "display_ratio": {"den": 9, "num": 16}, "channels": 0, "width": 1920, "video_stream_index": 0, "has_video": true, "audio_bit_rate": 0, "duration": 4.0, "audio_timebase": {"den": 1, "num": 1}, "pixel_format": 0, "channel_layout": 4, "audio_stream_index": -1, "interlaced_frame": false, "file_size": "381959", "vcodec": "h264", "type": "FFmpegReader", "acodec": "", "fps": {"den": 1, "num": 25}, "top_field_first": true, "video_bit_rate": 763918, "height": 1080, "path": "D:/Dropbox/_2 Projetos Pessoais/Formas/Tri-C1.mp4", "video_length": "100", "has_single_image": false, "pixel_ratio": {"den": 1, "num": 1}, "sample_rate": 0, "video_timebase": {"den": 25, "num": 1}}, "perspective_c4_x": {"Points": [{"co": {"X": 1.0, "Y": -1.0}, "interpolation": 2}]}, "crop_y": {"Points": [{"co": {"X": 1.0, "Y": 0.0}, "interpolation": 2}]}, "has_video": {"Points": [{"co": {"X": 1.0, "Y": -1.0}, "interpolation": 2}]}, "channel_mapping": {"Points": [{"co": {"X": 1.0, "Y": -1.0}, "interpolation": 2}]}, "layer": 1, "time": {"Points": [{"co": {"X": 1.0, "Y": 0.0}, "interpolation": 2}]}, "scale_x": {"Points": [{"co": {"X": 1.0, "Y": 1.0}, "interpolation": 2}]}, "has_audio": {"Points": [{"co": {"X": 1.0, "Y": -1.0}, "interpolation": 2}]}, "waveform": false, "location_x": {"Points": [{"co": {"X": 1.0, "Y": 0.0}, "interpolation": 2}]}, "duration": 4.0, "perspective_c1_y": {"Points": [{"co": {"X": 1.0, "Y": -1.0}, "interpolation": 2}]}, "start": 0, "shear_y": {"Points": [{"co": {"X": 1.0, "Y": 0.0}, "interpolation": 2}]}, "perspective_c1_x": {"Points": [{"co": {"X": 1.0, "Y": -1.0}, "interpolation": 2}]}, "crop_x": {"Points": [{"co": {"X": 1.0, "Y": 0.0}, "interpolation": 2}]}, "scale_y": {"Points": [{"co": {"X": 1.0, "Y": 1.0}, "interpolation": 2}]}, "effects": [], "channel_filter": {"Points": [{"co": {"X": 1.0, "Y": -1.0}, "interpolation": 2}]}, "gravity": 4, "scale": 1, "file_id": "FQMUYQJMMQ", "crop_height": {"Points": [{"co": {"X": 1.0, "Y": -1.0}, "interpolation": 2}]}, "alpha": {"Points": [{"co": {"X": 1.0, "Y": 1.0}, "interpolation": 2}]}, "perspective_c2_x": {"Points": [{"co": {"X": 1.0, "Y": -1.0}, "interpolation": 2}]}}, {"wave_color": {"alpha": {"Points": [{"handle_right": {"X": 0.5, "Y": 0.0}, "co": {"X": 1.0, "Y": 255.0}, "handle_type": 0, "handle_left": {"X": 0.5, "Y": 1.0}, "interpolation": 0}]}, "red": {"Points": [{"handle_right": {"X": 0.5, "Y": 0.0}, "co": {"X": 1.0, "Y": 0.0}, "handle_type": 0, "handle_left": {"X": 0.5, "Y": 1.0}, "interpolation": 0}]}, "green": {"Points": [{"handle_right": {"X": 0.5, "Y": 0.0}, "co": {"X": 1.0, "Y": 123.0}, "handle_type": 0, "handle_left": {"X": 0.5, "Y": 1.0}, "interpolation": 0}]}, "blue": {"Points": [{"handle_right": {"X": 0.5, "Y": 0.0}, "co": {"X": 1.0, "Y": 255.0}, "handle_type": 0, "handle_left": {"X": 0.5, "Y": 1.0}, "interpolation": 0}]}}, "position": 16.37484375, "perspective_c3_y": {"Points": [{"co": {"X": 1.0, "Y": -1.0}, "interpolation": 2}]}, "end": 2.5300000000000002, "anchor": 0, "perspective_c2_y": {"Points": [{"co": {"X": 1.0, "Y": -1.0}, "interpolation": 2}]}, "perspective_c3_x": {"Points": [{"co": {"X": 1.0, "Y": -1.0}, "interpolation": 2}]}, "location_y": {"Points": [{"co": {"X": 1.0, "Y": 0.0}, "interpolation": 2}]}, "image": "C:\\Users\\guilh\\.openshot_qt\\thumbnail\\UEA4BYI020.png", "title": "Tri-D4.mp4", "id": "LZEGYL55D1", "shear_x": {"Points": [{"co": {"X": 1.0, "Y": 0.0}, "interpolation": 2}]}, "rotation": {"Points": [{"co": {"X": 1.0, "Y": 0.0}, "interpolation": 2}]}, "display": 0, "crop_width": {"Points": [{"co": {"X": 1.0, "Y": -1.0}, "interpolation": 2}]}, "perspective_c4_y": {"Points": [{"co": {"X": 1.0, "Y": -1.0}, "interpolation": 2}]}, "volume": {"Points": [{"co": {"X": 1.0, "Y": 1.0}, "interpolation": 2}]}, "reader": {"has_audio": false, "display_ratio": {"den": 9, "num": 16}, "channels": 0, "width": 1920, "video_stream_index": 0, "has_video": true, "audio_bit_rate": 0, "duration": 4.0, "audio_timebase": {"den": 1, "num": 1}, "pixel_format": 0, "channel_layout": 4, "audio_stream_index": -1, "interlaced_frame": false, "file_size": "865551", "vcodec": "h264", "type": "FFmpegReader", "acodec": "", "fps": {"den": 1, "num": 25}, "top_field_first": true, "video_bit_rate": 1731102, "height": 1080, "path": "D:/Dropbox/_2 Projetos Pessoais/Formas/Tri-D4.mp4", "video_length": "100", "has_single_image": false, "pixel_ratio": {"den": 1, "num": 1}, "sample_rate": 0, "video_timebase": {"den": 25, "num": 1}}, "perspective_c4_x": {"Points": [{"co": {"X": 1.0, "Y": -1.0}, "interpolation": 2}]}, "crop_y": {"Points": [{"co": {"X": 1.0, "Y": 0.0}, "interpolation": 2}]}, "has_video": {"Points": [{"co": {"X": 1.0, "Y": -1.0}, "interpolation": 2}]}, "channel_mapping": {"Points": [{"co": {"X": 1.0, "Y": -1.0}, "interpolation": 2}]}, "layer": 2, "time": {"Points": [{"co": {"X": 1.0, "Y": 0.0}, "interpolation": 2}]}, "scale_x": {"Points": [{"co": {"X": 1.0, "Y": 1.0}, "interpolation": 2}]}, "has_audio": {"Points": [{"co": {"X": 1.0, "Y": -1.0}, "interpolation": 2}]}, "waveform": false, "location_x": {"Points": [{"co": {"X": 1.0, "Y": 0.0}, "interpolation": 2}]}, "duration": 4.0, "perspective_c1_y": {"Points": [{"co": {"X": 1.0, "Y": -1.0}, "interpolation": 2}]}, "start": 0, "shear_y": {"Points": [{"co": {"X": 1.0, "Y": 0.0}, "interpolation": 2}]}, "perspective_c1_x": {"Points": [{"co": {"X": 1.0, "Y": -1.0}, "interpolation": 2}]}, "crop_x": {"Points": [{"co": {"X": 1.0, "Y": 0.0}, "interpolation": 2}]}, "scale_y": {"Points": [{"co": {"X": 1.0, "Y": 1.0}, "interpolation": 2}]}, "effects": [], "channel_filter": {"Points": [{"co": {"X": 1.0, "Y": -1.0}, "interpolation": 2}]}, "gravity": 4, "scale": 1, "file_id": "UEA4BYI020", "crop_height": {"Points": [{"co": {"X": 1.0, "Y": -1.0}, "interpolation": 2}]}, "alpha": {"Points": [{"co": {"X": 1.0, "Y": 1.0}, "interpolation": 2}]}, "perspective_c2_x": {"Points": [{"co": {"X": 1.0, "Y": -1.0}, "interpolation": 2}]}}, {"wave_color": {"alpha": {"Points": [{"handle_right": {"X": 0.5, "Y": 0.0}, "co": {"X": 1.0, "Y": 255.0}, "handle_type": 0, "handle_left": {"X": 0.5, "Y": 1.0}, "interpolation": 0}]}, "red": {"Points": [{"handle_right": {"X": 0.5, "Y": 0.0}, "co": {"X": 1.0, "Y": 0.0}, "handle_type": 0, "handle_left": {"X": 0.5, "Y": 1.0}, "interpolation": 0}]}, "green": {"Points": [{"handle_right": {"X": 0.5, "Y": 0.0}, "co": {"X": 1.0, "Y": 123.0}, "handle_type": 0, "handle_left": {"X": 0.5, "Y": 1.0}, "interpolation": 0}]}, "blue": {"Points": [{"handle_right": {"X": 0.5, "Y": 0.0}, "co": {"X": 1.0, "Y": 255.0}, "handle_type": 0, "handle_left": {"X": 0.5, "Y": 1.0}, "interpolation": 0}]}}, "position": 17.625, "perspective_c3_y": {"Points": [{"co": {"X": 1.0, "Y": -1.0}, "interpolation": 2}]}, "end": 2.0200000000000005, "anchor": 0, "perspective_c2_y": {"Points": [{"co": {"X": 1.0, "Y": -1.0}, "interpolation": 2}]}, "perspective_c3_x": {"Points": [{"co": {"X": 1.0, "Y": -1.0}, "interpolation": 2}]}, "location_y": {"Points": [{"co": {"X": 1.0, "Y": 0.0}, "interpolation": 2}]}, "image": "C:\\Users\\guilh\\.openshot_qt\\thumbnail\\Z3K8041N80.png", "title": "Cir-A1.mp4", "id": "TINJHYQDGU", "shear_x": {"Points": [{"co": {"X": 1.0, "Y": 0.0}, "interpolation": 2}]}, "rotation": {"Points": [{"co": {"X": 1.0, "Y": 0.0}, "interpolation": 2}]}, "display": 0, "crop_width": {"Points": [{"co": {"X": 1.0, "Y": -1.0}, "interpolation": 2}]}, "perspective_c4_y": {"Points": [{"co": {"X": 1.0, "Y": -1.0}, "interpolation": 2}]}, "volume": {"Points": [{"co": {"X": 1.0, "Y": 1.0}, "interpolation": 2}]}, "reader": {"has_audio": false, "display_ratio": {"den": 9, "num": 16}, "channels": 0, "width": 1920, "video_stream_index": 0, "has_video": true, "audio_bit_rate": 0, "duration": 4.0, "audio_timebase": {"den": 1, "num": 1}, "pixel_format": 0, "channel_layout": 4, "audio_stream_index": -1, "interlaced_frame": false, "file_size": "1428120", "vcodec": "h264", "type": "FFmpegReader", "acodec": "", "fps": {"den": 1, "num": 25}, "top_field_first": true, "video_bit_rate": 2856240, "height": 1080, "path": "D:/Dropbox/_2 Projetos Pessoais/Formas/Cir-A1.mp4", "video_length": "100", "has_single_image": false, "pixel_ratio": {"den": 1, "num": 1}, "sample_rate": 0, "video_timebase": {"den": 25, "num": 1}}, "perspective_c4_x": {"Points": [{"co": {"X": 1.0, "Y": -1.0}, "interpolation": 2}]}, "crop_y": {"Points": [{"co": {"X": 1.0, "Y": 0.0}, "interpolation": 2}]}, "has_video": {"Points": [{"co": {"X": 1.0, "Y": -1.0}, "interpolation": 2}]}, "channel_mapping": {"Points": [{"co": {"X": 1.0, "Y": -1.0}, "interpolation": 2}]}, "layer": 3, "time": {"Points": [{"co": {"X": 1.0, "Y": 0.0}, "interpolation": 2}]}, "scale_x": {"Points": [{"co": {"X": 1.0, "Y": 1.0}, "interpolation": 2}]}, "has_audio": {"Points": [{"co": {"X": 1.0, "Y": -1.0}, "interpolation": 2}]}, "waveform": false, "location_x": {"Points": [{"co": {"X": 1.0, "Y": 0.0}, "interpolation": 2}]}, "duration": 4.0, "perspective_c1_y": {"Points": [{"co": {"X": 1.0, "Y": -1.0}, "interpolation": 2}]}, "start": 0, "shear_y": {"Points": [{"co": {"X": 1.0, "Y": 0.0}, "interpolation": 2}]}, "perspective_c1_x": {"Points": [{"co": {"X": 1.0, "Y": -1.0}, "interpolation": 2}]}, "crop_x": {"Points": [{"co": {"X": 1.0, "Y": 0.0}, "interpolation": 2}]}, "scale_y": {"Points": [{"co": {"X": 1.0, "Y": 1.0}, "interpolation": 2}]}, "effects": [], "channel_filter": {"Points": [{"co": {"X": 1.0, "Y": -1.0}, "interpolation": 2}]}, "gravity": 4, "scale": 1, "file_id": "Z3K8041N80", "crop_height": {"Points": [{"co": {"X": 1.0, "Y": -1.0}, "interpolation": 2}]}, "alpha": {"Points": [{"co": {"X": 1.0, "Y": 1.0}, "interpolation": 2}]}, "perspective_c2_x": {"Points": [{"co": {"X": 1.0, "Y": -1.0}, "interpolation": 2}]}}, {"wave_color": {"alpha": {"Points": [{"handle_right": {"X": 0.5, "Y": 0.0}, "co": {"X": 1.0, "Y": 255.0}, "handle_type": 0, "handle_left": {"X": 0.5, "Y": 1.0}, "interpolation": 0}]}, "red": {"Points": [{"handle_right": {"X": 0.5, "Y": 0.0}, "co": {"X": 1.0, "Y": 0.0}, "handle_type": 0, "handle_left": {"X": 0.5, "Y": 1.0}, "interpolation": 0}]}, "green": {"Points": [{"handle_right": {"X": 0.5, "Y": 0.0}, "co": {"X": 1.0, "Y": 123.0}, "handle_type": 0, "handle_left": {"X": 0.5, "Y": 1.0}, "interpolation": 0}]}, "blue": {"Points": [{"handle_right": {"X": 0.5, "Y": 0.0}, "co": {"X": 1.0, "Y": 255.0}, "handle_type": 0, "handle_left": {"X": 0.5, "Y": 1.0}, "interpolation": 0}]}}, "position": 18.958333333333332, "perspective_c3_y": {"Points": [{"co": {"X": 1.0, "Y": -1.0}, "interpolation": 2}]}, "end": 0.9700000000000002, "anchor": 0, "perspective_c2_y": {"Points": [{"co": {"X": 1.0, "Y": -1.0}, "interpolation": 2}]}, "perspective_c3_x": {"Points": [{"co": {"X": 1.0, "Y": -1.0}, "interpolation": 2}]}, "location_y": {"Points": [{"co": {"X": 1.0, "Y": 0.0}, "interpolation": 2}]}, "image": "C:\\Users\\guilh\\.openshot_qt\\thumbnail\\73JXRKE5ZB.png", "title": "Cir-A3.mp4", "id": "8ZCQK1LN6D", "shear_x": {"Points": [{"co": {"X": 1.0, "Y": 0.0}, "interpolation": 2}]}, "rotation": {"Points": [{"co": {"X": 1.0, "Y": 0.0}, "interpolation": 2}]}, "display": 0, "crop_width": {"Points": [{"co": {"X": 1.0, "Y": -1.0}, "interpolation": 2}]}, "perspective_c4_y": {"Points": [{"co": {"X": 1.0, "Y": -1.0}, "interpolation": 2}]}, "volume": {"Points": [{"co": {"X": 1.0, "Y": 1.0}, "interpolation": 2}]}, "reader": {"has_audio": false, "display_ratio": {"den": 9, "num": 16}, "channels": 0, "width": 1920, "video_stream_index": 0, "has_video": true, "audio_bit_rate": 0, "duration": 4.0, "audio_timebase": {"den": 1, "num": 1}, "pixel_format": 0, "channel_layout": 4, "audio_stream_index": -1, "interlaced_frame": false, "file_size": "5501826", "vcodec": "h264", "type": "FFmpegReader", "acodec": "", "fps": {"den": 1, "num": 25}, "top_field_first": true, "video_bit_rate": 11003652, "height": 1080, "path": "D:/Dropbox/_2 Projetos Pessoais/Formas/Cir-A3.mp4", "video_length": "100", "has_single_image": false, "pixel_ratio": {"den": 1, "num": 1}, "sample_rate": 0, "video_timebase": {"den": 25, "num": 1}}, "perspective_c4_x": {"Points": [{"co": {"X": 1.0, "Y": -1.0}, "interpolation": 2}]}, "crop_y": {"Points": [{"co": {"X": 1.0, "Y": 0.0}, "interpolation": 2}]}, "has_video": {"Points": [{"co": {"X": 1.0, "Y": -1.0}, "interpolation": 2}]}, "channel_mapping": {"Points": [{"co": {"X": 1.0, "Y": -1.0}, "interpolation": 2}]}, "layer": 4, "time": {"Points": [{"co": {"X": 1.0, "Y": 0.0}, "interpolation": 2}]}, "scale_x": {"Points": [{"co": {"X": 1.0, "Y": 1.0}, "interpolation": 2}]}, "has_audio": {"Points": [{"co": {"X": 1.0, "Y": -1.0}, "interpolation": 2}]}, "waveform": false, "location_x": {"Points": [{"co": {"X": 1.0, "Y": 0.0}, "interpolation": 2}]}, "duration": 4.0, "perspective_c1_y": {"Points": [{"co": {"X": 1.0, "Y": -1.0}, "interpolation": 2}]}, "start": 0, "shear_y": {"Points": [{"co": {"X": 1.0, "Y": 0.0}, "interpolation": 2}]}, "perspective_c1_x": {"Points": [{"co": {"X": 1.0, "Y": -1.0}, "interpolation": 2}]}, "crop_x": {"Points": [{"co": {"X": 1.0, "Y": 0.0}, "interpolation": 2}]}, "scale_y": {"Points": [{"co": {"X": 1.0, "Y": 1.0}, "interpolation": 2}]}, "effects": [], "channel_filter": {"Points": [{"co": {"X": 1.0, "Y": -1.0}, "interpolation": 2}]}, "gravity": 4, "scale": 1, "file_id": "73JXRKE5ZB", "crop_height": {"Points": [{"co": {"X": 1.0, "Y": -1.0}, "interpolation": 2}]}, "alpha": {"Points": [{"co": {"X": 1.0, "Y": 1.0}, "interpolation": 2}]}, "perspective_c2_x": {"Points": [{"co": {"X": 1.0, "Y": -1.0}, "interpolation": 2}]}}, {"wave_color": {"alpha": {"Points": [{"handle_right": {"X": 0.5, "Y": 0.0}, "co": {"X": 1.0, "Y": 255.0}, "handle_type": 0, "handle_left": {"X": 0.5, "Y": 1.0}, "interpolation": 0}]}, "red": {"Points": [{"handle_right": {"X": 0.5, "Y": 0.0}, "co": {"X": 1.0, "Y": 0.0}, "handle_type": 0, "handle_left": {"X": 0.5, "Y": 1.0}, "interpolation": 0}]}, "green": {"Points": [{"handle_right": {"X": 0.5, "Y": 0.0}, "co": {"X": 1.0, "Y": 123.0}, "handle_type": 0, "handle_left": {"X": 0.5, "Y": 1.0}, "interpolation": 0}]}, "blue": {"Points": [{"handle_right": {"X": 0.5, "Y": 0.0}, "co": {"X": 1.0, "Y": 255.0}, "handle_type": 0, "handle_left": {"X": 0.5, "Y": 1.0}, "interpolation": 0}]}}, "position": 18.958333333333332, "perspective_c3_y": {"Points": [{"co": {"X": 1.0, "Y": -1.0}, "interpolation": 2}]}, "end": 4, "anchor": 0, "perspective_c2_y": {"Points": [{"co": {"X": 1.0, "Y": -1.0}, "interpolation": 2}]}, "perspective_c3_x": {"Points": [{"co": {"X": 1.0, "Y": -1.0}, "interpolation": 2}]}, "location_y": {"Points": [{"co": {"X": 1.0, "Y": 0.0}, "interpolation": 2}]}, "image": "C:\\Users\\guilh\\.openshot_qt\\thumbnail\\H33G8VY6T4.png", "title": "Qua-C3.mp4", "id": "VG869PTJB6", "shear_x": {"Points": [{"co": {"X": 1.0, "Y": 0.0}, "interpolation": 2}]}, "rotation": {"Points": [{"co": {"X": 1.0, "Y": 0.0}, "interpolation": 2}]}, "display": 0, "crop_width": {"Points": [{"co": {"X": 1.0, "Y": -1.0}, "interpolation": 2}]}, "perspective_c4_y": {"Points": [{"co": {"X": 1.0, "Y": -1.0}, "interpolation": 2}]}, "volume": {"Points": [{"co": {"X": 1.0, "Y": 1.0}, "interpolation": 2}]}, "reader": {"has_audio": false, "display_ratio": {"den": 9, "num": 16}, "channels": 0, "width": 1920, "video_stream_index": 0, "has_video": true, "audio_bit_rate": 0, "duration": 4.0, "audio_timebase": {"den": 1, "num": 1}, "pixel_format": 0, "channel_layout": 4, "audio_stream_index": -1, "interlaced_frame": false, "file_size": "1301939", "vcodec": "h264", "type": "FFmpegReader", "acodec": "", "fps": {"den": 1, "num": 25}, "top_field_first": true, "video_bit_rate": 2603878, "height": 1080, "path": "D:/Dropbox/_2 Projetos Pessoais/Formas/Qua-C3.mp4", "video_length": "100", "has_single_image": false, "pixel_ratio": {"den": 1, "num": 1}, "sample_rate": 0, "video_timebase": {"den": 25, "num": 1}}, "perspective_c4_x": {"Points": [{"co": {"X": 1.0, "Y": -1.0}, "interpolation": 2}]}, "crop_y": {"Points": [{"co": {"X": 1.0, "Y": 0.0}, "interpolation": 2}]}, "has_video": {"Points": [{"co": {"X": 1.0, "Y": -1.0}, "interpolation": 2}]}, "channel_mapping": {"Points": [{"co": {"X": 1.0, "Y": -1.0}, "interpolation": 2}]}, "layer": 1, "time": {"Points": [{"co": {"X": 1.0, "Y": 0.0}, "interpolation": 2}]}, "scale_x": {"Points": [{"co": {"X": 1.0, "Y": 1.0}, "interpolation": 2}]}, "has_audio": {"Points": [{"co": {"X": 1.0, "Y": -1.0}, "interpolation": 2}]}, "waveform": false, "location_x": {"Points": [{"co": {"X": 1.0, "Y": 0.0}, "interpolation": 2}]}, "duration": 4.0, "perspective_c1_y": {"Points": [{"co": {"X": 1.0, "Y": -1.0}, "interpolation": 2}]}, "start": 0, "shear_y": {"Points": [{"co": {"X": 1.0, "Y": 0.0}, "interpolation": 2}]}, "perspective_c1_x": {"Points": [{"co": {"X": 1.0, "Y": -1.0}, "interpolation": 2}]}, "crop_x": {"Points": [{"co": {"X": 1.0, "Y": 0.0}, "interpolation": 2}]}, "scale_y": {"Points": [{"co": {"X": 1.0, "Y": 1.0}, "interpolation": 2}]}, "effects": [], "channel_filter": {"Points": [{"co": {"X": 1.0, "Y": -1.0}, "interpolation": 2}]}, "gravity": 4, "scale": 1, "file_id": "H33G8VY6T4", "crop_height": {"Points": [{"co": {"X": 1.0, "Y": -1.0}, "interpolation": 2}]}, "alpha": {"Points": [{"co": {"X": 1.0, "Y": 1.0}, "interpolation": 2}]}, "perspective_c2_x": {"Points": [{"co": {"X": 1.0, "Y": -1.0}, "interpolation": 2}]}}, {"wave_color": {"alpha": {"Points": [{"handle_right": {"X": 0.5, "Y": 0.0}, "co": {"X": 1.0, "Y": 255.0}, "handle_type": 0, "handle_left": {"X": 0.5, "Y": 1.0}, "interpolation": 0}]}, "red": {"Points": [{"handle_right": {"X": 0.5, "Y": 0.0}, "co": {"X": 1.0, "Y": 0.0}, "handle_type": 0, "handle_left": {"X": 0.5, "Y": 1.0}, "interpolation": 0}]}, "green": {"Points": [{"handle_right": {"X": 0.5, "Y": 0.0}, "co": {"X": 1.0, "Y": 123.0}, "handle_type": 0, "handle_left": {"X": 0.5, "Y": 1.0}, "interpolation": 0}]}, "blue": {"Points": [{"handle_right": {"X": 0.5, "Y": 0.0}, "co": {"X": 1.0, "Y": 255.0}, "handle_type": 0, "handle_left": {"X": 0.5, "Y": 1.0}, "interpolation": 0}]}}, "position": 20.7496875, "perspective_c3_y": {"Points": [{"co": {"X": 1.0, "Y": -1.0}, "interpolation": 2}]}, "end": 2.14, "anchor": 0, "perspective_c2_y": {"Points": [{"co": {"X": 1.0, "Y": -1.0}, "interpolation": 2}]}, "perspective_c3_x": {"Points": [{"co": {"X": 1.0, "Y": -1.0}, "interpolation": 2}]}, "location_y": {"Points": [{"co": {"X": 1.0, "Y": 0.0}, "interpolation": 2}]}, "image": "C:\\Users\\guilh\\.openshot_qt\\thumbnail\\DQR811QKNX.png", "title": "Qua-D2.mp4", "id": "DMEYMLXPNT", "shear_x": {"Points": [{"co": {"X": 1.0, "Y": 0.0}, "interpolation": 2}]}, "rotation": {"Points": [{"co": {"X": 1.0, "Y": 0.0}, "interpolation": 2}]}, "display": 0, "crop_width": {"Points": [{"co": {"X": 1.0, "Y": -1.0}, "interpolation": 2}]}, "perspective_c4_y": {"Points": [{"co": {"X": 1.0, "Y": -1.0}, "interpolation": 2}]}, "volume": {"Points": [{"co": {"X": 1.0, "Y": 1.0}, "interpolation": 2}]}, "reader": {"has_audio": false, "display_ratio": {"den": 9, "num": 16}, "channels": 0, "width": 1920, "video_stream_index": 0, "has_video": true, "audio_bit_rate": 0, "duration": 4.0, "audio_timebase": {"den": 1, "num": 1}, "pixel_format": 0, "channel_layout": 4, "audio_stream_index": -1, "interlaced_frame": false, "file_size": "1202259", "vcodec": "h264", "type": "FFmpegReader", "acodec": "", "fps": {"den": 1, "num": 25}, "top_field_first": true, "video_bit_rate": 2404518, "height": 1080, "path": "D:/Dropbox/_2 Projetos Pessoais/Formas/Qua-D2.mp4", "video_length": "100", "has_single_image": false, "pixel_ratio": {"den": 1, "num": 1}, "sample_rate": 0, "video_timebase": {"den": 25, "num": 1}}, "perspective_c4_x": {"Points": [{"co": {"X": 1.0, "Y": -1.0}, "interpolation": 2}]}, "crop_y": {"Points": [{"co": {"X": 1.0, "Y": 0.0}, "interpolation": 2}]}, "has_video": {"Points": [{"co": {"X": 1.0, "Y": -1.0}, "interpolation": 2}]}, "channel_mapping": {"Points": [{"co": {"X": 1.0, "Y": -1.0}, "interpolation": 2}]}, "layer": 2, "time": {"Points": [{"co": {"X": 1.0, "Y": 0.0}, "interpolation": 2}]}, "scale_x": {"Points": [{"co": {"X": 1.0, "Y": 1.0}, "interpolation": 2}]}, "has_audio": {"Points": [{"co": {"X": 1.0, "Y": -1.0}, "interpolation": 2}]}, "waveform": false, "location_x": {"Points": [{"co": {"X": 1.0, "Y": 0.0}, "interpolation": 2}]}, "duration": 4.0, "perspective_c1_y": {"Points": [{"co": {"X": 1.0, "Y": -1.0}, "interpolation": 2}]}, "start": 0, "shear_y": {"Points": [{"co": {"X": 1.0, "Y": 0.0}, "interpolation": 2}]}, "perspective_c1_x": {"Points": [{"co": {"X": 1.0, "Y": -1.0}, "interpolation": 2}]}, "crop_x": {"Points": [{"co": {"X": 1.0, "Y": 0.0}, "interpolation": 2}]}, "scale_y": {"Points": [{"co": {"X": 1.0, "Y": 1.0}, "interpolation": 2}]}, "effects": [], "channel_filter": {"Points": [{"co": {"X": 1.0, "Y": -1.0}, "interpolation": 2}]}, "gravity": 4, "scale": 1, "file_id": "DQR811QKNX", "crop_height": {"Points": [{"co": {"X": 1.0, "Y": -1.0}, "interpolation": 2}]}, "alpha": {"Points": [{"co": {"X": 1.0, "Y": 1.0}, "interpolation": 2}]}, "perspective_c2_x": {"Points": [{"co": {"X": 1.0, "Y": -1.0}, "interpolation": 2}]}}, {"wave_color": {"alpha": {"Points": [{"handle_right": {"X": 0.5, "Y": 0.0}, "co": {"X": 1.0, "Y": 255.0}, "handle_type": 0, "handle_left": {"X": 0.5, "Y": 1.0}, "interpolation": 0}]}, "red": {"Points": [{"handle_right": {"X": 0.5, "Y": 0.0}, "co": {"X": 1.0, "Y": 0.0}, "handle_type": 0, "handle_left": {"X": 0.5, "Y": 1.0}, "interpolation": 0}]}, "green": {"Points": [{"handle_right": {"X": 0.5, "Y": 0.0}, "co": {"X": 1.0, "Y": 123.0}, "handle_type": 0, "handle_left": {"X": 0.5, "Y": 1.0}, "interpolation": 0}]}, "blue": {"Points": [{"handle_right": {"X": 0.5, "Y": 0.0}, "co": {"X": 1.0, "Y": 255.0}, "handle_type": 0, "handle_left": {"X": 0.5, "Y": 1.0}, "interpolation": 0}]}}, "position": 21.208125, "perspective_c3_y": {"Points": [{"co": {"X": 1.0, "Y": -1.0}, "interpolation": 2}]}, "end": 2.05, "anchor": 0, "perspective_c2_y": {"Points": [{"co": {"X": 1.0, "Y": -1.0}, "interpolation": 2}]}, "perspective_c3_x": {"Points": [{"co": {"X": 1.0, "Y": -1.0}, "interpolation": 2}]}, "location_y": {"Points": [{"co": {"X": 1.0, "Y": 0.0}, "interpolation": 2}]}, "image": "C:\\Users\\guilh\\.openshot_qt\\thumbnail\\Q2DGH3BP5C.png", "title": "Qua-C4.mp4", "id": "UJ1PEHQLGC", "shear_x": {"Points": [{"co": {"X": 1.0, "Y": 0.0}, "interpolation": 2}]}, "rotation": {"Points": [{"co": {"X": 1.0, "Y": 0.0}, "interpolation": 2}]}, "display": 0, "crop_width": {"Points": [{"co": {"X": 1.0, "Y": -1.0}, "interpolation": 2}]}, "perspective_c4_y": {"Points": [{"co": {"X": 1.0, "Y": -1.0}, "interpolation": 2}]}, "volume": {"Points": [{"co": {"X": 1.0, "Y": 1.0}, "interpolation": 2}]}, "reader": {"has_audio": false, "display_ratio": {"den": 9, "num": 16}, "channels": 0, "width": 1920, "video_stream_index": 0, "has_video": true, "audio_bit_rate": 0, "duration": 4.0, "audio_timebase": {"den": 1, "num": 1}, "pixel_format": 0, "channel_layout": 4, "audio_stream_index": -1, "interlaced_frame": false, "file_size": "526954", "vcodec": "h264", "type": "FFmpegReader", "acodec": "", "fps": {"den": 1, "num": 25}, "top_field_first": true, "video_bit_rate": 1053908, "height": 1080, "path": "D:/Dropbox/_2 Projetos Pessoais/Formas/Qua-C4.mp4", "video_length": "100", "has_single_image": false, "pixel_ratio": {"den": 1, "num": 1}, "sample_rate": 0, "video_timebase": {"den": 25, "num": 1}}, "perspective_c4_x": {"Points": [{"co": {"X": 1.0, "Y": -1.0}, "interpolation": 2}]}, "crop_y": {"Points": [{"co": {"X": 1.0, "Y": 0.0}, "interpolation": 2}]}, "has_video": {"Points": [{"co": {"X": 1.0, "Y": -1.0}, "interpolation": 2}]}, "channel_mapping": {"Points": [{"co": {"X": 1.0, "Y": -1.0}, "interpolation": 2}]}, "layer": 3, "time": {"Points": [{"co": {"X": 1.0, "Y": 0.0}, "interpolation": 2}]}, "scale_x": {"Points": [{"co": {"X": 1.0, "Y": 1.0}, "interpolation": 2}]}, "has_audio": {"Points": [{"co": {"X": 1.0, "Y": -1.0}, "interpolation": 2}]}, "waveform": false, "location_x": {"Points": [{"co": {"X": 1.0, "Y": 0.0}, "interpolation": 2}]}, "duration": 4.0, "perspective_c1_y": {"Points": [{"co": {"X": 1.0, "Y": -1.0}, "interpolation": 2}]}, "start": 0, "shear_y": {"Points": [{"co": {"X": 1.0, "Y": 0.0}, "interpolation": 2}]}, "perspective_c1_x": {"Points": [{"co": {"X": 1.0, "Y": -1.0}, "interpolation": 2}]}, "crop_x": {"Points": [{"co": {"X": 1.0, "Y": 0.0}, "interpolation": 2}]}, "scale_y": {"Points": [{"co": {"X": 1.0, "Y": 1.0}, "interpolation": 2}]}, "effects": [], "channel_filter": {"Points": [{"co": {"X": 1.0, "Y": -1.0}, "interpolation": 2}]}, "gravity": 4, "scale": 1, "file_id": "Q2DGH3BP5C", "crop_height": {"Points": [{"co": {"X": 1.0, "Y": -1.0}, "interpolation": 2}]}, "alpha": {"Points": [{"co": {"X": 1.0, "Y": 1.0}, "interpolation": 2}]}, "perspective_c2_x": {"Points": [{"co": {"X": 1.0, "Y": -1.0}, "interpolation": 2}]}}, {"wave_color": {"alpha": {"Points": [{"handle_right": {"X": 0.5, "Y": 0.0}, "co": {"X": 1.0, "Y": 255.0}, "handle_type": 0, "handle_left": {"X": 0.5, "Y": 1.0}, "interpolation": 0}]}, "red": {"Points": [{"handle_right": {"X": 0.5, "Y": 0.0}, "co": {"X": 1.0, "Y": 0.0}, "handle_type": 0, "handle_left": {"X": 0.5, "Y": 1.0}, "interpolation": 0}]}, "green": {"Points": [{"handle_right": {"X": 0.5, "Y": 0.0}, "co": {"X": 1.0, "Y": 123.0}, "handle_type": 0, "handle_left": {"X": 0.5, "Y": 1.0}, "interpolation": 0}]}, "blue": {"Points": [{"handle_right": {"X": 0.5, "Y": 0.0}, "co": {"X": 1.0, "Y": 255.0}, "handle_type": 0, "handle_left": {"X": 0.5, "Y": 1.0}, "interpolation": 0}]}}, "position": 22.45828125, "perspective_c3_y": {"Points": [{"co": {"X": 1.0, "Y": -1.0}, "interpolation": 2}]}, "end": 1.4200000000000004, "anchor": 0, "perspective_c2_y": {"Points": [{"co": {"X": 1.0, "Y": -1.0}, "interpolation": 2}]}, "perspective_c3_x": {"Points": [{"co": {"X": 1.0, "Y": -1.0}, "interpolation": 2}]}, "location_y": {"Points": [{"co": {"X": 1.0, "Y": 0.0}, "interpolation": 2}]}, "image": "C:\\Users\\guilh\\.openshot_qt\\thumbnail\\ZCN8GZ2F5Y.png", "title": "Qua-C2.mp4", "id": "U2HPQEFUGM", "shear_x": {"Points": [{"co": {"X": 1.0, "Y": 0.0}, "interpolation": 2}]}, "rotation": {"Points": [{"co": {"X": 1.0, "Y": 0.0}, "interpolation": 2}]}, "display": 0, "crop_width": {"Points": [{"co": {"X": 1.0, "Y": -1.0}, "interpolation": 2}]}, "perspective_c4_y": {"Points": [{"co": {"X": 1.0, "Y": -1.0}, "interpolation": 2}]}, "volume": {"Points": [{"co": {"X": 1.0, "Y": 1.0}, "interpolation": 2}]}, "reader": {"has_audio": false, "display_ratio": {"den": 9, "num": 16}, "channels": 0, "width": 1920, "video_stream_index": 0, "has_video": true, "audio_bit_rate": 0, "duration": 4.0, "audio_timebase": {"den": 1, "num": 1}, "pixel_format": 0, "channel_layout": 4, "audio_stream_index": -1, "interlaced_frame": false, "file_size": "873420", "vcodec": "h264", "type": "FFmpegReader", "acodec": "", "fps": {"den": 1, "num": 25}, "top_field_first": true, "video_bit_rate": 1746840, "height": 1080, "path": "D:/Dropbox/_2 Projetos Pessoais/Formas/Qua-C2.mp4", "video_length": "100", "has_single_image": false, "pixel_ratio": {"den": 1, "num": 1}, "sample_rate": 0, "video_timebase": {"den": 25, "num": 1}}, "perspective_c4_x": {"Points": [{"co": {"X": 1.0, "Y": -1.0}, "interpolation": 2}]}, "crop_y": {"Points": [{"co": {"X": 1.0, "Y": 0.0}, "interpolation": 2}]}, "has_video": {"Points": [{"co": {"X": 1.0, "Y": -1.0}, "interpolation": 2}]}, "channel_mapping": {"Points": [{"co": {"X": 1.0, "Y": -1.0}, "interpolation": 2}]}, "layer": 4, "time": {"Points": [{"co": {"X": 1.0, "Y": 0.0}, "interpolation": 2}]}, "scale_x": {"Points": [{"co": {"X": 1.0, "Y": 1.0}, "interpolation": 2}]}, "has_audio": {"Points": [{"co": {"X": 1.0, "Y": -1.0}, "interpolation": 2}]}, "waveform": false, "location_x": {"Points": [{"co": {"X": 1.0, "Y": 0.0}, "interpolation": 2}]}, "duration": 4.0, "perspective_c1_y": {"Points": [{"co": {"X": 1.0, "Y": -1.0}, "interpolation": 2}]}, "start": 0, "shear_y": {"Points": [{"co": {"X": 1.0, "Y": 0.0}, "interpolation": 2}]}, "perspective_c1_x": {"Points": [{"co": {"X": 1.0, "Y": -1.0}, "interpolation": 2}]}, "crop_x": {"Points": [{"co": {"X": 1.0, "Y": 0.0}, "interpolation": 2}]}, "scale_y": {"Points": [{"co": {"X": 1.0, "Y": 1.0}, "interpolation": 2}]}, "effects": [], "channel_filter": {"Points": [{"co": {"X": 1.0, "Y": -1.0}, "interpolation": 2}]}, "gravity": 4, "scale": 1, "file_id": "ZCN8GZ2F5Y", "crop_height": {"Points": [{"co": {"X": 1.0, "Y": -1.0}, "interpolation": 2}]}, "alpha": {"Points": [{"co": {"X": 1.0, "Y": 1.0}, "interpolation": 2}]}, "perspective_c2_x": {"Points": [{"co": {"X": 1.0, "Y": -1.0}, "interpolation": 2}]}}, {"wave_color": {"alpha": {"Points": [{"handle_right": {"X": 0.5, "Y": 0.0}, "co": {"X": 1.0, "Y": 255.0}, "handle_type": 0, "handle_left": {"X": 0.5, "Y": 1.0}, "interpolation": 0}]}, "red": {"Points": [{"handle_right": {"X": 0.5, "Y": 0.0}, "co": {"X": 1.0, "Y": 0.0}, "handle_type": 0, "handle_left": {"X": 0.5, "Y": 1.0}, "interpolation": 0}]}, "green": {"Points": [{"handle_right": {"X": 0.5, "Y": 0.0}, "co": {"X": 1.0, "Y": 123.0}, "handle_type": 0, "handle_left": {"X": 0.5, "Y": 1.0}, "interpolation": 0}]}, "blue": {"Points": [{"handle_right": {"X": 0.5, "Y": 0.0}, "co": {"X": 1.0, "Y": 255.0}, "handle_type": 0, "handle_left": {"X": 0.5, "Y": 1.0}, "interpolation": 0}]}}, "position": 23.499843749999997, "perspective_c3_y": {"Points": [{"co": {"X": 1.0, "Y": -1.0}, "interpolation": 2}]}, "end": 2.35, "anchor": 0, "perspective_c2_y": {"Points": [{"co": {"X": 1.0, "Y": -1.0}, "interpolation": 2}]}, "perspective_c3_x": {"Points": [{"co": {"X": 1.0, "Y": -1.0}, "interpolation": 2}]}, "location_y": {"Points": [{"co": {"X": 1.0, "Y": 0.0}, "interpolation": 2}]}, "image": "C:\\Users\\guilh\\.openshot_qt\\thumbnail\\680XY687OX.png", "title": "Qua-B1.mp4", "id": "5MEFYEX5YR", "shear_x": {"Points": [{"co": {"X": 1.0, "Y": 0.0}, "interpolation": 2}]}, "rotation": {"Points": [{"co": {"X": 1.0, "Y": 0.0}, "interpolation": 2}]}, "display": 0, "crop_width": {"Points": [{"co": {"X": 1.0, "Y": -1.0}, "interpolation": 2}]}, "perspective_c4_y": {"Points": [{"co": {"X": 1.0, "Y": -1.0}, "interpolation": 2}]}, "volume": {"Points": [{"co": {"X": 1.0, "Y": 1.0}, "interpolation": 2}]}, "reader": {"has_audio": false, "display_ratio": {"den": 9, "num": 16}, "channels": 0, "width": 1920, "video_stream_index": 0, "has_video": true, "audio_bit_rate": 0, "duration": 4.0, "audio_timebase": {"den": 1, "num": 1}, "pixel_format": 0, "channel_layout": 4, "audio_stream_index": -1, "interlaced_frame": false, "file_size": "80300", "vcodec": "h264", "type": "FFmpegReader", "acodec": "", "fps": {"den": 1, "num": 25}, "top_field_first": true, "video_bit_rate": 160600, "height": 1080, "path": "D:/Dropbox/_2 Projetos Pessoais/Formas/Qua-B1.mp4", "video_length": "100", "has_single_image": false, "pixel_ratio": {"den": 1, "num": 1}, "sample_rate": 0, "video_timebase": {"den": 25, "num": 1}}, "perspective_c4_x": {"Points": [{"co": {"X": 1.0, "Y": -1.0}, "interpolation": 2}]}, "crop_y": {"Points": [{"co": {"X": 1.0, "Y": 0.0}, "interpolation": 2}]}, "has_video": {"Points": [{"co": {"X": 1.0, "Y": -1.0}, "interpolation": 2}]}, "channel_mapping": {"Points": [{"co": {"X": 1.0, "Y": -1.0}, "interpolation": 2}]}, "layer": 3, "time": {"Points": [{"co": {"X": 1.0, "Y": 0.0}, "interpolation": 2}]}, "scale_x": {"Points": [{"co": {"X": 1.0, "Y": 1.0}, "interpolation": 2}]}, "has_audio": {"Points": [{"co": {"X": 1.0, "Y": -1.0}, "interpolation": 2}]}, "waveform": false, "location_x": {"Points": [{"co": {"X": 1.0, "Y": 0.0}, "interpolation": 2}]}, "duration": 4.0, "perspective_c1_y": {"Points": [{"co": {"X": 1.0, "Y": -1.0}, "interpolation": 2}]}, "start": 0, "shear_y": {"Points": [{"co": {"X": 1.0, "Y": 0.0}, "interpolation": 2}]}, "perspective_c1_x": {"Points": [{"co": {"X": 1.0, "Y": -1.0}, "interpolation": 2}]}, "crop_x": {"Points": [{"co": {"X": 1.0, "Y": 0.0}, "interpolation": 2}]}, "scale_y": {"Points": [{"co": {"X": 1.0, "Y": 1.0}, "interpolation": 2}]}, "effects": [], "channel_filter": {"Points": [{"co": {"X": 1.0, "Y": -1.0}, "interpolation": 2}]}, "gravity": 4, "scale": 1, "file_id": "680XY687OX", "crop_height": {"Points": [{"co": {"X": 1.0, "Y": -1.0}, "interpolation": 2}]}, "alpha": {"Points": [{"co": {"X": 1.0, "Y": 1.0}, "interpolation": 2}]}, "perspective_c2_x": {"Points": [{"co": {"X": 1.0, "Y": -1.0}, "interpolation": 2}]}}, {"wave_color": {"alpha": {"Points": [{"handle_right": {"X": 0.5, "Y": 0.0}, "co": {"X": 1.0, "Y": 255.0}, "handle_type": 0, "handle_left": {"X": 0.5, "Y": 1.0}, "interpolation": 0}]}, "red": {"Points": [{"handle_right": {"X": 0.5, "Y": 0.0}, "co": {"X": 1.0, "Y": 0.0}, "handle_type": 0, "handle_left": {"X": 0.5, "Y": 1.0}, "interpolation": 0}]}, "green": {"Points": [{"handle_right": {"X": 0.5, "Y": 0.0}, "co": {"X": 1.0, "Y": 123.0}, "handle_type": 0, "handle_left": {"X": 0.5, "Y": 1.0}, "interpolation": 0}]}, "blue": {"Points": [{"handle_right": {"X": 0.5, "Y": 0.0}, "co": {"X": 1.0, "Y": 255.0}, "handle_type": 0, "handle_left": {"X": 0.5, "Y": 1.0}, "interpolation": 0}]}}, "position": 24.8596875, "perspective_c3_y": {"Points": [{"co": {"X": 1.0, "Y": -1.0}, "interpolation": 2}]}, "end": 4, "anchor": 0, "perspective_c2_y": {"Points": [{"co": {"X": 1.0, "Y": -1.0}, "interpolation": 2}]}, "perspective_c3_x": {"Points": [{"co": {"X": 1.0, "Y": -1.0}, "interpolation": 2}]}, "location_y": {"Points": [{"co": {"X": 1.0, "Y": 0.0}, "interpolation": 2}]}, "image": "C:\\Users\\guilh\\.openshot_qt\\thumbnail\\9FO52AB8FV.png", "title": "Qua-A1.mp4", "id": "CP7O4UUOTT", "shear_x": {"Points": [{"co": {"X": 1.0, "Y": 0.0}, "interpolation": 2}]}, "rotation": {"Points": [{"co": {"X": 1.0, "Y": 0.0}, "interpolation": 2}]}, "display": 0, "crop_width": {"Points": [{"co": {"X": 1.0, "Y": -1.0}, "interpolation": 2}]}, "perspective_c4_y": {"Points": [{"co": {"X": 1.0, "Y": -1.0}, "interpolation": 2}]}, "volume": {"Points": [{"co": {"X": 1.0, "Y": 1.0}, "interpolation": 2}]}, "reader": {"has_audio": false, "display_ratio": {"den": 9, "num": 16}, "channels": 0, "width": 1920, "video_stream_index": 0, "has_video": true, "audio_bit_rate": 0, "duration": 4.0, "audio_timebase": {"den": 1, "num": 1}, "pixel_format": 0, "channel_layout": 4, "audio_stream_index": -1, "interlaced_frame": false, "file_size": "80944", "vcodec": "h264", "type": "FFmpegReader", "acodec": "", "fps": {"den": 1, "num": 25}, "top_field_first": true, "video_bit_rate": 161888, "height": 1080, "path": "D:/Dropbox/_2 Projetos Pessoais/Formas/Qua-A1.mp4", "video_length": "100", "has_single_image": false, "pixel_ratio": {"den": 1, "num": 1}, "sample_rate": 0, "video_timebase": {"den": 25, "num": 1}}, "perspective_c4_x": {"Points": [{"co": {"X": 1.0, "Y": -1.0}, "interpolation": 2}]}, "crop_y": {"Points": [{"co": {"X": 1.0, "Y": 0.0}, "interpolation": 2}]}, "has_video": {"Points": [{"co": {"X": 1.0, "Y": -1.0}, "interpolation": 2}]}, "channel_mapping": {"Points": [{"co": {"X": 1.0, "Y": -1.0}, "interpolation": 2}]}, "layer": 2, "time": {"Points": [{"co": {"X": 1.0, "Y": 0.0}, "interpolation": 2}]}, "scale_x": {"Points": [{"co": {"X": 1.0, "Y": 1.0}, "interpolation": 2}]}, "has_audio": {"Points": [{"co": {"X": 1.0, "Y": -1.0}, "interpolation": 2}]}, "waveform": false, "location_x": {"Points": [{"co": {"X": 1.0, "Y": 0.0}, "interpolation": 2}]}, "duration": 4.0, "perspective_c1_y": {"Points": [{"co": {"X": 1.0, "Y": -1.0}, "interpolation": 2}]}, "start": 0, "shear_y": {"Points": [{"co": {"X": 1.0, "Y": 0.0}, "interpolation": 2}]}, "perspective_c1_x": {"Points": [{"co": {"X": 1.0, "Y": -1.0}, "interpolation": 2}]}, "crop_x": {"Points": [{"co": {"X": 1.0, "Y": 0.0}, "interpolation": 2}]}, "scale_y": {"Points": [{"co": {"X": 1.0, "Y": 1.0}, "interpolation": 2}]}, "effects": [], "channel_filter": {"Points": [{"co": {"X": 1.0, "Y": -1.0}, "interpolation": 2}]}, "gravity": 4, "scale": 1, "file_id": "9FO52AB8FV", "crop_height": {"Points": [{"co": {"X": 1.0, "Y": -1.0}, "interpolation": 2}]}, "alpha": {"Points": [{"co": {"X": 1.0, "Y": 1.0}, "interpolation": 2}]}, "perspective_c2_x": {"Points": [{"co": {"X": 1.0, "Y": -1.0}, "interpolation": 2}]}}, {"wave_color": {"alpha": {"Points": [{"handle_right": {"X": 0.5, "Y": 0.0}, "co": {"X": 1.0, "Y": 255.0}, "handle_type": 0, "handle_left": {"X": 0.5, "Y": 1.0}, "interpolation": 0}]}, "red": {"Points": [{"handle_right": {"X": 0.5, "Y": 0.0}, "co": {"X": 1.0, "Y": 0.0}, "handle_type": 0, "handle_left": {"X": 0.5, "Y": 1.0}, "interpolation": 0}]}, "green": {"Points": [{"handle_right": {"X": 0.5, "Y": 0.0}, "co": {"X": 1.0, "Y": 123.0}, "handle_type": 0, "handle_left": {"X": 0.5, "Y": 1.0}, "interpolation": 0}]}, "blue": {"Points": [{"handle_right": {"X": 0.5, "Y": 0.0}, "co": {"X": 1.0, "Y": 255.0}, "handle_type": 0, "handle_left": {"X": 0.5, "Y": 1.0}, "interpolation": 0}]}}, "position": 28.919999999999998, "perspective_c3_y": {"Points": [{"co": {"X": 1.0, "Y": -1.0}, "interpolation": 2}]}, "end": 4, "anchor": 0, "perspective_c2_y": {"Points": [{"co": {"X": 1.0, "Y": -1.0}, "interpolation": 2}]}, "perspective_c3_x": {"Points": [{"co": {"X": 1.0, "Y": -1.0}, "interpolation": 2}]}, "location_y": {"Points": [{"co": {"X": 1.0, "Y": 0.0}, "interpolation": 2}]}, "image": "C:\\Users\\guilh\\.openshot_qt\\thumbnail\\V73V55IHCZ.png", "title": "Tri-C3.mp4", "id": "1CBPVEWAGM", "shear_x": {"Points": [{"co": {"X": 1.0, "Y": 0.0}, "interpolation": 2}]}, "rotation": {"Points": [{"co": {"X": 1.0, "Y": 0.0}, "interpolation": 2}]}, "display": 0, "crop_width": {"Points": [{"co": {"X": 1.0, "Y": -1.0}, "interpolation": 2}]}, "perspective_c4_y": {"Points": [{"co": {"X": 1.0, "Y": -1.0}, "interpolation": 2}]}, "volume": {"Points": [{"co": {"X": 1.0, "Y": 1.0}, "interpolation": 2}]}, "reader": {"has_audio": false, "display_ratio": {"den": 9, "num": 16}, "channels": 0, "width": 1920, "video_stream_index": 0, "has_video": true, "audio_bit_rate": 0, "duration": 4.0, "audio_timebase": {"den": 1, "num": 1}, "pixel_format": 0, "channel_layout": 4, "audio_stream_index": -1, "interlaced_frame": false, "file_size": "317805", "vcodec": "h264", "type": "FFmpegReader", "acodec": "", "fps": {"den": 1, "num": 25}, "top_field_first": true, "video_bit_rate": 635610, "height": 1080, "path": "D:/Dropbox/_2 Projetos Pessoais/Formas/Tri-C3.mp4", "video_length": "100", "has_single_image": false, "pixel_ratio": {"den": 1, "num": 1}, "sample_rate": 0, "video_timebase": {"den": 25, "num": 1}}, "perspective_c4_x": {"Points": [{"co": {"X": 1.0, "Y": -1.0}, "interpolation": 2}]}, "crop_y": {"Points": [{"co": {"X": 1.0, "Y": 0.0}, "interpolation": 2}]}, "has_video": {"Points": [{"co": {"X": 1.0, "Y": -1.0}, "interpolation": 2}]}, "channel_mapping": {"Points": [{"co": {"X": 1.0, "Y": -1.0}, "interpolation": 2}]}, "layer": 1, "time": {"Points": [{"co": {"X": 1.0, "Y": 0.0}, "interpolation": 2}]}, "scale_x": {"Points": [{"co": {"X": 1.0, "Y": 1.0}, "interpolation": 2}]}, "has_audio": {"Points": [{"co": {"X": 1.0, "Y": -1.0}, "interpolation": 2}]}, "waveform": false, "location_x": {"Points": [{"co": {"X": 1.0, "Y": 0.0}, "interpolation": 2}]}, "duration": 4.0, "perspective_c1_y": {"Points": [{"co": {"X": 1.0, "Y": -1.0}, "interpolation": 2}]}, "start": 0, "shear_y": {"Points": [{"co": {"X": 1.0, "Y": 0.0}, "interpolation": 2}]}, "perspective_c1_x": {"Points": [{"co": {"X": 1.0, "Y": -1.0}, "interpolation": 2}]}, "crop_x": {"Points": [{"co": {"X": 1.0, "Y": 0.0}, "interpolation": 2}]}, "scale_y": {"Points": [{"co": {"X": 1.0, "Y": 1.0}, "interpolation": 2}]}, "effects": [], "channel_filter": {"Points": [{"co": {"X": 1.0, "Y": -1.0}, "interpolation": 2}]}, "gravity": 4, "scale": 1, "file_id": "V73V55IHCZ", "crop_height": {"Points": [{"co": {"X": 1.0, "Y": -1.0}, "interpolation": 2}]}, "alpha": {"Points": [{"co": {"X": 1.0, "Y": 1.0}, "interpolation": 2}]}, "perspective_c2_x": {"Points": [{"co": {"X": 1.0, "Y": -1.0}, "interpolation": 2}]}}], "files": [{"has_audio": true, "display_ratio": {"den": 1, "num": 1}, "channels": 2, "width": 720, "video_stream_index": -1, "has_video": false, "audio_bit_rate": 160000, "duration": 209.8677520751953, "audio_timebase": {"den": 14112000, "num": 1}, "pixel_format": -1, "channel_layout": 3, "id": "FT51V3RUBZ", "audio_stream_index": 0, "interlaced_frame": false, "file_size": "4197425", "vcodec": "", "type": "FFmpegReader", "acodec": "mp3", "fps": {"den": 1, "num": 24}, "top_field_first": true, "video_bit_rate": 0, "height": 480, "path": "..\\..\\_9 Resources\\Audio\\Kinhu Mix\\kinhumix-base-de-funk-violao-prod-53c3cb.mp3", "media_type": "audio", "video_length": "5036", "has_single_image": false, "pixel_ratio": {"den": 1, "num": 1}, "sample_rate": 44100, "video_timebase": {"den": 24, "num": 1}}, {"has_audio": false, "display_ratio": {"den": 9, "num": 16}, "channels": 0, "width": 1920, "video_stream_index": 0, "has_video": true, "audio_bit_rate": 0, "duration": 4.0, "audio_timebase": {"den": 1, "num": 1}, "pixel_format": 0, "channel_layout": 4, "id": "9FO52AB8FV", "audio_stream_index": -1, "interlaced_frame": false, "file_size": "80944", "vcodec": "h264", "type": "FFmpegReader", "acodec": "", "fps": {"den": 1, "num": 25}, "top_field_first": true, "video_bit_rate": 161888, "height": 1080, "path": "Qua-A1.mp4", "media_type": "video", "video_length": "100", "has_single_image": false, "pixel_ratio": {"den": 1, "num": 1}, "sample_rate": 0, "video_timebase": {"den": 25, "num": 1}}, {"has_audio": false, "display_ratio": {"den": 9, "num": 16}, "channels": 0, "width": 1920, "video_stream_index": 0, "has_video": true, "audio_bit_rate": 0, "duration": 4.0, "audio_timebase": {"den": 1, "num": 1}, "pixel_format": 0, "channel_layout": 4, "id": "PP4Z75S1HU", "audio_stream_index": -1, "interlaced_frame": false, "file_size": "127051", "vcodec": "h264", "type": "FFmpegReader", "acodec": "", "fps": {"den": 1, "num": 25}, "top_field_first": true, "video_bit_rate": 254102, "height": 1080, "path": "Qua-A2.mp4", "media_type": "video", "video_length": "100", "has_single_image": false, "pixel_ratio": {"den": 1, "num": 1}, "sample_rate": 0, "video_timebase": {"den": 25, "num": 1}}, {"has_audio": false, "display_ratio": {"den": 9, "num": 16}, "channels": 0, "width": 1920, "video_stream_index": 0, "has_video": true, "audio_bit_rate": 0, "duration": 4.0, "audio_timebase": {"den": 1, "num": 1}, "pixel_format": 0, "channel_layout": 4, "id": "VUR02QE68J", "audio_stream_index": -1, "interlaced_frame": false, "file_size": "170988", "vcodec": "h264", "type": "FFmpegReader", "acodec": "", "fps": {"den": 1, "num": 25}, "top_field_first": true, "video_bit_rate": 341976, "height": 1080, "path": "Qua-A3.mp4", "media_type": "video", "video_length": "100", "has_single_image": false, "pixel_ratio": {"den": 1, "num": 1}, "sample_rate": 0, "video_timebase": {"den": 25, "num": 1}}, {"has_audio": false, "display_ratio": {"den": 9, "num": 16}, "channels": 0, "width": 1920, "video_stream_index": 0, "has_video": true, "audio_bit_rate": 0, "duration": 4.0, "audio_timebase": {"den": 1, "num": 1}, "pixel_format": 0, "channel_layout": 4, "id": "CDDAJC1SD7", "audio_stream_index": -1, "interlaced_frame": false, "file_size": "669010", "vcodec": "h264", "type": "FFmpegReader", "acodec": "", "fps": {"den": 1, "num": 25}, "top_field_first": true, "video_bit_rate": 1338020, "height": 1080, "path": "Qua-A4.mp4", "media_type": "video", "video_length": "100", "has_single_image": false, "pixel_ratio": {"den": 1, "num": 1}, "sample_rate": 0, "video_timebase": {"den": 25, "num": 1}}, {"has_audio": false, "display_ratio": {"den": 9, "num": 16}, "channels": 0, "width": 1920, "video_stream_index": 0, "has_video": true, "audio_bit_rate": 0, "duration": 4.0, "audio_timebase": {"den": 1, "num": 1}, "pixel_format": 0, "channel_layout": 4, "id": "680XY687OX", "audio_stream_index": -1, "interlaced_frame": false, "file_size": "80300", "vcodec": "h264", "type": "FFmpegReader", "acodec": "", "fps": {"den": 1, "num": 25}, "top_field_first": true, "video_bit_rate": 160600, "height": 1080, "path": "Qua-B1.mp4", "media_type": "video", "video_length": "100", "has_single_image": false, "pixel_ratio": {"den": 1, "num": 1}, "sample_rate": 0, "video_timebase": {"den": 25, "num": 1}}, {"has_audio": false, "display_ratio": {"den": 9, "num": 16}, "channels": 0, "width": 1920, "video_stream_index": 0, "has_video": true, "audio_bit_rate": 0, "duration": 4.0, "audio_timebase": {"den": 1, "num": 1}, "pixel_format": 0, "channel_layout": 4, "id": "25F4BAZCXQ", "audio_stream_index": -1, "interlaced_frame": false, "file_size": "179298", "vcodec": "h264", "type": "FFmpegReader", "acodec": "", "fps": {"den": 1, "num": 25}, "top_field_first": true, "video_bit_rate": 358596, "height": 1080, "path": "Qua-B2.mp4", "media_type": "video", "video_length": "100", "has_single_image": false, "pixel_ratio": {"den": 1, "num": 1}, "sample_rate": 0, "video_timebase": {"den": 25, "num": 1}}, {"has_audio": false, "display_ratio": {"den": 9, "num": 16}, "channels": 0, "width": 1920, "video_stream_index": 0, "has_video": true, "audio_bit_rate": 0, "duration": 4.0, "audio_timebase": {"den": 1, "num": 1}, "pixel_format": 0, "channel_layout": 4, "id": "21CH8FSMMS", "audio_stream_index": -1, "interlaced_frame": false, "file_size": "88576", "vcodec": "h264", "type": "FFmpegReader", "acodec": "", "fps": {"den": 1, "num": 25}, "top_field_first": true, "video_bit_rate": 177152, "height": 1080, "path": "Qua-B3.mp4", "media_type": "video", "video_length": "100", "has_single_image": false, "pixel_ratio": {"den": 1, "num": 1}, "sample_rate": 0, "video_timebase": {"den": 25, "num": 1}}, {"has_audio": false, "display_ratio": {"den": 9, "num": 16}, "channels": 0, "width": 1920, "video_stream_index": 0, "has_video": true, "audio_bit_rate": 0, "duration": 4.0, "audio_timebase": {"den": 1, "num": 1}, "pixel_format": 0, "channel_layout": 4, "id": "8NKXMTOQIG", "audio_stream_index": -1, "interlaced_frame": false, "file_size": "311801", "vcodec": "h264", "type": "FFmpegReader", "acodec": "", "fps": {"den": 1, "num": 25}, "top_field_first": true, "video_bit_rate": 623602, "height": 1080, "path": "Qua-B4.mp4", "media_type": "video", "video_length": "100", "has_single_image": false, "pixel_ratio": {"den": 1, "num": 1}, "sample_rate": 0, "video_timebase": {"den": 25, "num": 1}}, {"has_audio": false, "display_ratio": {"den": 9, "num": 16}, "channels": 0, "width": 1920, "video_stream_index": 0, "has_video": true, "audio_bit_rate": 0, "duration": 4.0, "audio_timebase": {"den": 1, "num": 1}, "pixel_format": 0, "channel_layout": 4, "id": "0OPUORDPR8", "audio_stream_index": -1, "interlaced_frame": false, "file_size": "889434", "vcodec": "h264", "type": "FFmpegReader", "acodec": "", "fps": {"den": 1, "num": 25}, "top_field_first": true, "video_bit_rate": 1778868, "height": 1080, "path": "Qua-C1.mp4", "media_type": "video", "video_length": "100", "has_single_image": false, "pixel_ratio": {"den": 1, "num": 1}, "sample_rate": 0, "video_timebase": {"den": 25, "num": 1}}, {"has_audio": false, "display_ratio": {"den": 9, "num": 16}, "channels": 0, "width": 1920, "video_stream_index": 0, "has_video": true, "audio_bit_rate": 0, "duration": 4.0, "audio_timebase": {"den": 1, "num": 1}, "pixel_format": 0, "channel_layout": 4, "id": "ZCN8GZ2F5Y", "audio_stream_index": -1, "interlaced_frame": false, "file_size": "873420", "vcodec": "h264", "type": "FFmpegReader", "acodec": "", "fps": {"den": 1, "num": 25}, "top_field_first": true, "video_bit_rate": 1746840, "height": 1080, "path": "Qua-C2.mp4", "media_type": "video", "video_length": "100", "has_single_image": false, "pixel_ratio": {"den": 1, "num": 1}, "sample_rate": 0, "video_timebase": {"den": 25, "num": 1}}, {"has_audio": false, "display_ratio": {"den": 9, "num": 16}, "channels": 0, "width": 1920, "video_stream_index": 0, "has_video": true, "audio_bit_rate": 0, "duration": 4.0, "audio_timebase": {"den": 1, "num": 1}, "pixel_format": 0, "channel_layout": 4, "id": "H33G8VY6T4", "audio_stream_index": -1, "interlaced_frame": false, "file_size": "1301939", "vcodec": "h264", "type": "FFmpegReader", "acodec": "", "fps": {"den": 1, "num": 25}, "top_field_first": true, "video_bit_rate": 2603878, "height": 1080, "path": "Qua-C3.mp4", "media_type": "video", "video_length": "100", "has_single_image": false, "pixel_ratio": {"den": 1, "num": 1}, "sample_rate": 0, "video_timebase": {"den": 25, "num": 1}}, {"has_audio": false, "display_ratio": {"den": 9, "num": 16}, "channels": 0, "width": 1920, "video_stream_index": 0, "has_video": true, "audio_bit_rate": 0, "duration": 4.0, "audio_timebase": {"den": 1, "num": 1}, "pixel_format": 0, "channel_layout": 4, "id": "Q2DGH3BP5C", "audio_stream_index": -1, "interlaced_frame": false, "file_size": "526954", "vcodec": "h264", "type": "FFmpegReader", "acodec": "", "fps": {"den": 1, "num": 25}, "top_field_first": true, "video_bit_rate": 1053908, "height": 1080, "path": "Qua-C4.mp4", "media_type": "video", "video_length": "100", "has_single_image": false, "pixel_ratio": {"den": 1, "num": 1}, "sample_rate": 0, "video_timebase": {"den": 25, "num": 1}}, {"has_audio": false, "display_ratio": {"den": 9, "num": 16}, "channels": 0, "width": 1920, "video_stream_index": 0, "has_video": true, "audio_bit_rate": 0, "duration": 4.0, "audio_timebase": {"den": 1, "num": 1}, "pixel_format": 0, "channel_layout": 4, "id": "IEDSP73YFZ", "audio_stream_index": -1, "interlaced_frame": false, "file_size": "4629786", "vcodec": "h264", "type": "FFmpegReader", "acodec": "", "fps": {"den": 1, "num": 25}, "top_field_first": true, "video_bit_rate": 9259572, "height": 1080, "path": "Qua-D1.mp4", "media_type": "video", "video_length": "100", "has_single_image": false, "pixel_ratio": {"den": 1, "num": 1}, "sample_rate": 0, "video_timebase": {"den": 25, "num": 1}}, {"has_audio": false, "display_ratio": {"den": 9, "num": 16}, "channels": 0, "width": 1920, "video_stream_index": 0, "has_video": true, "audio_bit_rate": 0, "duration": 4.0, "audio_timebase": {"den": 1, "num": 1}, "pixel_format": 0, "channel_layout": 4, "id": "DQR811QKNX", "audio_stream_index": -1, "interlaced_frame": false, "file_size": "1202259", "vcodec": "h264", "type": "FFmpegReader", "acodec": "", "fps": {"den": 1, "num": 25}, "top_field_first": true, "video_bit_rate": 2404518, "height": 1080, "path": "Qua-D2.mp4", "media_type": "video", "video_length": "100", "has_single_image": false, "pixel_ratio": {"den": 1, "num": 1}, "sample_rate": 0, "video_timebase": {"den": 25, "num": 1}}, {"has_audio": false, "display_ratio": {"den": 9, "num": 16}, "channels": 0, "width": 1920, "video_stream_index": 0, "has_video": true, "audio_bit_rate": 0, "duration": 4.0, "audio_timebase": {"den": 1, "num": 1}, "pixel_format": 0, "channel_layout": 4, "id": "1YR4WXKVA9", "audio_stream_index": -1, "interlaced_frame": false, "file_size": "2957681", "vcodec": "h264", "type": "FFmpegReader", "acodec": "", "fps": {"den": 1, "num": 25}, "top_field_first": true, "video_bit_rate": 5915362, "height": 1080, "path": "Qua-D3.mp4", "media_type": "video", "video_length": "100", "has_single_image": false, "pixel_ratio": {"den": 1, "num": 1}, "sample_rate": 0, "video_timebase": {"den": 25, "num": 1}}, {"has_audio": false, "display_ratio": {"den": 9, "num": 16}, "channels": 0, "width": 1920, "video_stream_index": 0, "has_video": true, "audio_bit_rate": 0, "duration": 4.0, "audio_timebase": {"den": 1, "num": 1}, "pixel_format": 0, "channel_layout": 4, "id": "OO9EKUBS34", "audio_stream_index": -1, "interlaced_frame": false, "file_size": "2539958", "vcodec": "h264", "type": "FFmpegReader", "acodec": "", "fps": {"den": 1, "num": 25}, "top_field_first": true, "video_bit_rate": 5079916, "height": 1080, "path": "Qua-D4.mp4", "media_type": "video", "video_length": "100", "has_single_image": false, "pixel_ratio": {"den": 1, "num": 1}, "sample_rate": 0, "video_timebase": {"den": 25, "num": 1}}, {"has_audio": false, "display_ratio": {"den": 9, "num": 16}, "channels": 0, "width": 1920, "video_stream_index": 0, "has_video": true, "audio_bit_rate": 0, "duration": 4.0, "audio_timebase": {"den": 1, "num": 1}, "pixel_format": 0, "channel_layout": 4, "id": "3HIUVQQUBI", "audio_stream_index": -1, "interlaced_frame": false, "file_size": "468489", "vcodec": "h264", "type": "FFmpegReader", "acodec": "", "fps": {"den": 1, "num": 25}, "top_field_first": true, "video_bit_rate": 936978, "height": 1080, "path": "Tri-A1.mp4", "media_type": "video", "video_length": "100", "has_single_image": false, "pixel_ratio": {"den": 1, "num": 1}, "sample_rate": 0, "video_timebase": {"den": 25, "num": 1}}, {"has_audio": false, "display_ratio": {"den": 9, "num": 16}, "channels": 0, "width": 1920, "video_stream_index": 0, "has_video": true, "audio_bit_rate": 0, "duration": 4.0, "audio_timebase": {"den": 1, "num": 1}, "pixel_format": 0, "channel_layout": 4, "id": "PYV11IWDZ8", "audio_stream_index": -1, "interlaced_frame": false, "file_size": "456281", "vcodec": "h264", "type": "FFmpegReader", "acodec": "", "fps": {"den": 1, "num": 25}, "top_field_first": true, "video_bit_rate": 912562, "height": 1080, "path": "Tri-A2.mp4", "media_type": "video", "video_length": "100", "has_single_image": false, "pixel_ratio": {"den": 1, "num": 1}, "sample_rate": 0, "video_timebase": {"den": 25, "num": 1}}, {"has_audio": false, "display_ratio": {"den": 9, "num": 16}, "channels": 0, "width": 1920, "video_stream_index": 0, "has_video": true, "audio_bit_rate": 0, "duration": 4.0, "audio_timebase": {"den": 1, "num": 1}, "pixel_format": 0, "channel_layout": 4, "id": "8TT4J552L8", "audio_stream_index": -1, "interlaced_frame": false, "file_size": "517185", "vcodec": "h264", "type": "FFmpegReader", "acodec": "", "fps": {"den": 1, "num": 25}, "top_field_first": true, "video_bit_rate": 1034370, "height": 1080, "path": "Tri-A3.mp4", "media_type": "video", "video_length": "100", "has_single_image": false, "pixel_ratio": {"den": 1, "num": 1}, "sample_rate": 0, "video_timebase": {"den": 25, "num": 1}}, {"has_audio": false, "display_ratio": {"den": 9, "num": 16}, "channels": 0, "width": 1920, "video_stream_index": 0, "has_video": true, "audio_bit_rate": 0, "duration": 4.0, "audio_timebase": {"den": 1, "num": 1}, "pixel_format": 0, "channel_layout": 4, "id": "IG2WLFRRAF", "audio_stream_index": -1, "interlaced_frame": false, "file_size": "580245", "vcodec": "h264", "type": "FFmpegReader", "acodec": "", "fps": {"den": 1, "num": 25}, "top_field_first": true, "video_bit_rate": 1160490, "height": 1080, "path": "Tri-A4.mp4", "media_type": "video", "video_length": "100", "has_single_image": false, "pixel_ratio": {"den": 1, "num": 1}, "sample_rate": 0, "video_timebase": {"den": 25, "num": 1}}, {"has_audio": false, "display_ratio": {"den": 9, "num": 16}, "channels": 0, "width": 1920, "video_stream_index": 0, "has_video": true, "audio_bit_rate": 0, "duration": 4.0, "audio_timebase": {"den": 1, "num": 1}, "pixel_format": 0, "channel_layout": 4, "id": "CSBFOGFUL8", "audio_stream_index": -1, "interlaced_frame": false, "file_size": "793410", "vcodec": "h264", "type": "FFmpegReader", "acodec": "", "fps": {"den": 1, "num": 25}, "top_field_first": true, "video_bit_rate": 1586820, "height": 1080, "path": "Tri-B1.mp4", "media_type": "video", "video_length": "100", "has_single_image": false, "pixel_ratio": {"den": 1, "num": 1}, "sample_rate": 0, "video_timebase": {"den": 25, "num": 1}}, {"has_audio": false, "display_ratio": {"den": 9, "num": 16}, "channels": 0, "width": 1920, "video_stream_index": 0, "has_video": true, "audio_bit_rate": 0, "duration": 4.0, "audio_timebase": {"den": 1, "num": 1}, "pixel_format": 0, "channel_layout": 4, "id": "VXNRNNPABP", "audio_stream_index": -1, "interlaced_frame": false, "file_size": "1409207", "vcodec": "h264", "type": "FFmpegReader", "acodec": "", "fps": {"den": 1, "num": 25}, "top_field_first": true, "video_bit_rate": 2818414, "height": 1080, "path": "Tri-B2.mp4", "media_type": "video", "video_length": "100", "has_single_image": false, "pixel_ratio": {"den": 1, "num": 1}, "sample_rate": 0, "video_timebase": {"den": 25, "num": 1}}, {"has_audio": false, "display_ratio": {"den": 9, "num": 16}, "channels": 0, "width": 1920, "video_stream_index": 0, "has_video": true, "audio_bit_rate": 0, "duration": 4.0, "audio_timebase": {"den": 1, "num": 1}, "pixel_format": 0, "channel_layout": 4, "id": "2EKX4EDT59", "audio_stream_index": -1, "interlaced_frame": false, "file_size": "306292", "vcodec": "h264", "type": "FFmpegReader", "acodec": "", "fps": {"den": 1, "num": 25}, "top_field_first": true, "video_bit_rate": 612584, "height": 1080, "path": "Tri-B3.mp4", "media_type": "video", "video_length": "100", "has_single_image": false, "pixel_ratio": {"den": 1, "num": 1}, "sample_rate": 0, "video_timebase": {"den": 25, "num": 1}}, {"has_audio": false, "display_ratio": {"den": 9, "num": 16}, "channels": 0, "width": 1920, "video_stream_index": 0, "has_video": true, "audio_bit_rate": 0, "duration": 4.0, "audio_timebase": {"den": 1, "num": 1}, "pixel_format": 0, "channel_layout": 4, "id": "I1J1IWUHF4", "audio_stream_index": -1, "interlaced_frame": false, "file_size": "1238691", "vcodec": "h264", "type": "FFmpegReader", "acodec": "", "fps": {"den": 1, "num": 25}, "top_field_first": true, "video_bit_rate": 2477382, "height": 1080, "path": "Tri-B4.mp4", "media_type": "video", "video_length": "100", "has_single_image": false, "pixel_ratio": {"den": 1, "num": 1}, "sample_rate": 0, "video_timebase": {"den": 25, "num": 1}}, {"has_audio": false, "display_ratio": {"den": 9, "num": 16}, "channels": 0, "width": 1920, "video_stream_index": 0, "has_video": true, "audio_bit_rate": 0, "duration": 4.0, "audio_timebase": {"den": 1, "num": 1}, "pixel_format": 0, "channel_layout": 4, "id": "FQMUYQJMMQ", "audio_stream_index": -1, "interlaced_frame": false, "file_size": "381959", "vcodec": "h264", "type": "FFmpegReader", "acodec": "", "fps": {"den": 1, "num": 25}, "top_field_first": true, "video_bit_rate": 763918, "height": 1080, "path": "Tri-C1.mp4", "media_type": "video", "video_length": "100", "has_single_image": false, "pixel_ratio": {"den": 1, "num": 1}, "sample_rate": 0, "video_timebase": {"den": 25, "num": 1}}, {"has_audio": false, "display_ratio": {"den": 9, "num": 16}, "channels": 0, "width": 1920, "video_stream_index": 0, "has_video": true, "audio_bit_rate": 0, "duration": 4.0, "audio_timebase": {"den": 1, "num": 1}, "pixel_format": 0, "channel_layout": 4, "id": "LWCGXGNC2C", "audio_stream_index": -1, "interlaced_frame": false, "file_size": "511846", "vcodec": "h264", "type": "FFmpegReader", "acodec": "", "fps": {"den": 1, "num": 25}, "top_field_first": true, "video_bit_rate": 1023692, "height": 1080, "path": "Tri-C2.mp4", "media_type": "video", "video_length": "100", "has_single_image": false, "pixel_ratio": {"den": 1, "num": 1}, "sample_rate": 0, "video_timebase": {"den": 25, "num": 1}}, {"has_audio": false, "display_ratio": {"den": 9, "num": 16}, "channels": 0, "width": 1920, "video_stream_index": 0, "has_video": true, "audio_bit_rate": 0, "duration": 4.0, "audio_timebase": {"den": 1, "num": 1}, "pixel_format": 0, "channel_layout": 4, "id": "V73V55IHCZ", "audio_stream_index": -1, "interlaced_frame": false, "file_size": "317805", "vcodec": "h264", "type": "FFmpegReader", "acodec": "", "fps": {"den": 1, "num": 25}, "top_field_first": true, "video_bit_rate": 635610, "height": 1080, "path": "Tri-C3.mp4", "media_type": "video", "video_length": "100", "has_single_image": false, "pixel_ratio": {"den": 1, "num": 1}, "sample_rate": 0, "video_timebase": {"den": 25, "num": 1}}, {"has_audio": false, "display_ratio": {"den": 9, "num": 16}, "channels": 0, "width": 1920, "video_stream_index": 0, "has_video": true, "audio_bit_rate": 0, "duration": 4.0, "audio_timebase": {"den": 1, "num": 1}, "pixel_format": 0, "channel_layout": 4, "id": "S4N5C6IQSN", "audio_stream_index": -1, "interlaced_frame": false, "file_size": "182453", "vcodec": "h264", "type": "FFmpegReader", "acodec": "", "fps": {"den": 1, "num": 25}, "top_field_first": true, "video_bit_rate": 364906, "height": 1080, "path": "Tri-C4.mp4", "media_type": "video", "video_length": "100", "has_single_image": false, "pixel_ratio": {"den": 1, "num": 1}, "sample_rate": 0, "video_timebase": {"den": 25, "num": 1}}, {"has_audio": false, "display_ratio": {"den": 9, "num": 16}, "channels": 0, "width": 1920, "video_stream_index": 0, "has_video": true, "audio_bit_rate": 0, "duration": 4.0, "audio_timebase": {"den": 1, "num": 1}, "pixel_format": 0, "channel_layout": 4, "id": "Y1IDCGLDXP", "audio_stream_index": -1, "interlaced_frame": false, "file_size": "264158", "vcodec": "h264", "type": "FFmpegReader", "acodec": "", "fps": {"den": 1, "num": 25}, "top_field_first": true, "video_bit_rate": 528316, "height": 1080, "path": "Tri-D1.mp4", "media_type": "video", "video_length": "100", "has_single_image": false, "pixel_ratio": {"den": 1, "num": 1}, "sample_rate": 0, "video_timebase": {"den": 25, "num": 1}}, {"has_audio": false, "display_ratio": {"den": 9, "num": 16}, "channels": 0, "width": 1920, "video_stream_index": 0, "has_video": true, "audio_bit_rate": 0, "duration": 4.0, "audio_timebase": {"den": 1, "num": 1}, "pixel_format": 0, "channel_layout": 4, "id": "XQI72KXG5U", "audio_stream_index": -1, "interlaced_frame": false, "file_size": "432899", "vcodec": "h264", "type": "FFmpegReader", "acodec": "", "fps": {"den": 1, "num": 25}, "top_field_first": true, "video_bit_rate": 865798, "height": 1080, "path": "Tri-D2.mp4", "media_type": "video", "video_length": "100", "has_single_image": false, "pixel_ratio": {"den": 1, "num": 1}, "sample_rate": 0, "video_timebase": {"den": 25, "num": 1}}, {"has_audio": false, "display_ratio": {"den": 9, "num": 16}, "channels": 0, "width": 1920, "video_stream_index": 0, "has_video": true, "audio_bit_rate": 0, "duration": 4.0, "audio_timebase": {"den": 1, "num": 1}, "pixel_format": 0, "channel_layout": 4, "id": "L4KCV8R2Q8", "audio_stream_index": -1, "interlaced_frame": false, "file_size": "600815", "vcodec": "h264", "type": "FFmpegReader", "acodec": "", "fps": {"den": 1, "num": 25}, "top_field_first": true, "video_bit_rate": 1201630, "height": 1080, "path": "Tri-D3.mp4", "media_type": "video", "video_length": "100", "has_single_image": false, "pixel_ratio": {"den": 1, "num": 1}, "sample_rate": 0, "video_timebase": {"den": 25, "num": 1}}, {"has_audio": false, "display_ratio": {"den": 9, "num": 16}, "channels": 0, "width": 1920, "video_stream_index": 0, "has_video": true, "audio_bit_rate": 0, "duration": 4.0, "audio_timebase": {"den": 1, "num": 1}, "pixel_format": 0, "channel_layout": 4, "id": "UEA4BYI020", "audio_stream_index": -1, "interlaced_frame": false, "file_size": "865551", "vcodec": "h264", "type": "FFmpegReader", "acodec": "", "fps": {"den": 1, "num": 25}, "top_field_first": true, "video_bit_rate": 1731102, "height": 1080, "path": "Tri-D4.mp4", "media_type": "video", "video_length": "100", "has_single_image": false, "pixel_ratio": {"den": 1, "num": 1}, "sample_rate": 0, "video_timebase": {"den": 25, "num": 1}}, {"has_audio": false, "display_ratio": {"den": 9, "num": 16}, "channels": 0, "width": 1920, "video_stream_index": 0, "has_video": true, "audio_bit_rate": 0, "duration": 4.0, "audio_timebase": {"den": 1, "num": 1}, "pixel_format": 0, "channel_layout": 4, "id": "Z3K8041N80", "audio_stream_index": -1, "interlaced_frame": false, "file_size": "1428120", "vcodec": "h264", "type": "FFmpegReader", "acodec": "", "fps": {"den": 1, "num": 25}, "top_field_first": true, "video_bit_rate": 2856240, "height": 1080, "path": "Cir-A1.mp4", "media_type": "video", "video_length": "100", "has_single_image": false, "pixel_ratio": {"den": 1, "num": 1}, "sample_rate": 0, "video_timebase": {"den": 25, "num": 1}}, {"has_audio": false, "display_ratio": {"den": 9, "num": 16}, "channels": 0, "width": 1920, "video_stream_index": 0, "has_video": true, "audio_bit_rate": 0, "duration": 4.0, "audio_timebase": {"den": 1, "num": 1}, "pixel_format": 0, "channel_layout": 4, "id": "RFEU6D4GKS", "audio_stream_index": -1, "interlaced_frame": false, "file_size": "2782173", "vcodec": "h264", "type": "FFmpegReader", "acodec": "", "fps": {"den": 1, "num": 25}, "top_field_first": true, "video_bit_rate": 5564346, "height": 1080, "path": "Cir-A2.mp4", "media_type": "video", "video_length": "100", "has_single_image": false, "pixel_ratio": {"den": 1, "num": 1}, "sample_rate": 0, "video_timebase": {"den": 25, "num": 1}}, {"has_audio": false, "display_ratio": {"den": 9, "num": 16}, "channels": 0, "width": 1920, "video_stream_index": 0, "has_video": true, "audio_bit_rate": 0, "duration": 4.0, "audio_timebase": {"den": 1, "num": 1}, "pixel_format": 0, "channel_layout": 4, "id": "73JXRKE5ZB", "audio_stream_index": -1, "interlaced_frame": false, "file_size": "5501826", "vcodec": "h264", "type": "FFmpegReader", "acodec": "", "fps": {"den": 1, "num": 25}, "top_field_first": true, "video_bit_rate": 11003652, "height": 1080, "path": "Cir-A3.mp4", "media_type": "video", "video_length": "100", "has_single_image": false, "pixel_ratio": {"den": 1, "num": 1}, "sample_rate": 0, "video_timebase": {"den": 25, "num": 1}}, {"has_audio": false, "display_ratio": {"den": 9, "num": 16}, "channels": 0, "width": 1920, "video_stream_index": 0, "has_video": true, "audio_bit_rate": 0, "duration": 4.0, "audio_timebase": {"den": 1, "num": 1}, "pixel_format": 0, "channel_layout": 4, "id": "RTY2GGOA0F", "audio_stream_index": -1, "interlaced_frame": false, "file_size": "2041884", "vcodec": "h264", "type": "FFmpegReader", "acodec": "", "fps": {"den": 1, "num": 25}, "top_field_first": true, "video_bit_rate": 4083768, "height": 1080, "path": "Cir-A4.mp4", "media_type": "video", "video_length": "100", "has_single_image": false, "pixel_ratio": {"den": 1, "num": 1}, "sample_rate": 0, "video_timebase": {"den": 25, "num": 1}}], "version": {"libopenshot": "0.1.7", "openshot-qt": "2.3.4"}, "height": 720, "progress": [], "settings": {}, "scale": 3, "fps": {"den": 1, "num": 24}, "channel_layout": 3, "id": "T0", "effects": [], "export_path": "D:/Dropbox/_2 Projetos Pessoais/Formas", "sample_rate": 44100}